<svg id="Layer_1" data-name="Layer 1" xmlns="http://www.w3.org/2000/svg" viewBox="0 0 100 100"><title>Artboard 1 copy</title><path d="M90.48,23a23.15,23.15,0,0,1-2.18,2.93,33.73,33.73,0,0,1-6,5.58c-.33.24-.2.55-.17.82a24.16,24.16,0,0,1,0,3.26c0,.8-.09,1.6-.17,2.4a48.53,48.53,0,0,1-1,6.12,50.1,50.1,0,0,1-4.71,12.64,48.9,48.9,0,0,1-6.16,9A45.81,45.81,0,0,1,60.76,74a45.12,45.12,0,0,1-14.95,6.36,51.53,51.53,0,0,1-6.44,1,51.09,51.09,0,0,1-7.32.18,46.58,46.58,0,0,1-11.46-2A48.07,48.07,0,0,1,9.24,74.52l-.36-.23a1.23,1.23,0,0,1-.13-.16,34,34,0,0,0,24.65-6.91c-7.71-.64-12.89-4.53-15.61-11.7a18.17,18.17,0,0,0,7.52-.33A16.91,16.91,0,0,1,11.86,38.46a17.05,17.05,0,0,0,7.57,2.11,21.25,21.25,0,0,1-2.05-1.65,16.86,16.86,0,0,1-3.26-20.5c.16-.29.25-.23.42,0A47.65,47.65,0,0,0,28.72,30a47.34,47.34,0,0,0,14.16,5,40.71,40.71,0,0,0,4.94.61l.82.06c.24,0,.28-.07.23-.29a15.06,15.06,0,0,1-.37-3.67,16.55,16.55,0,0,1,3.79-10.46,16.83,16.83,0,0,1,21.32-4,15.78,15.78,0,0,1,3.77,2.91.5.5,0,0,0,.53.16A33.67,33.67,0,0,0,88,16.43l.27-.14A17,17,0,0,1,81,25.54a13.15,13.15,0,0,0,1.9-.26,33.37,33.37,0,0,0,7.33-2.22.35.35,0,0,1,.24,0Z"/><path d="M90.48,23v0Z"/></svg>