<?xml version="1.0" encoding="utf-8"?>
<!-- Generator: Adobe Illustrator 17.1.0, SVG Export Plug-In . SVG Version: 6.00 Build 0)  -->
<!DOCTYPE svg PUBLIC "-//W3C//DTD SVG 1.1//EN" "http://www.w3.org/Graphics/SVG/1.1/DTD/svg11.dtd">

<svg version="1.1" id="Layer_2" xmlns="http://www.w3.org/2000/svg" xmlns:xlink="http://www.w3.org/1999/xlink" x="0px" y="0px"
	 viewBox="0 0 612 792" enable-background="new 0 0 612 792" xml:space="preserve">
<pattern id="fadeinlogo">

<path id="bg1" fill="none" stroke="#52BC46" stroke-miterlimit="10" d="M258.5-96.9V72.9L271,85.6v137.9l-15.6,15.6l0.1,187
	l-10,10.4v26.3l10,10.5l-0.1,103.1L271,592v138l-12.6,12.6v169.8"/>
<path id="bg2" fill="none" stroke="#52BC46" stroke-miterlimit="10" d="M262.1-95.6c-0.1,0.7,0,169.1,0,169.1l12.4,12.1v143
	L257.3,246v183.5L242.4,445v9.8l14.9,15.6v99.2l17.2,17.4v143l-12.4,12.1c0,0-0.1,168.4,0,169.1"/>
<path id="bg3" fill="none" stroke="#52BC46" stroke-miterlimit="10" d="M204.7,907.3L204.6,630l-5.2-4.4l0.3-104.3l20.7-20.9
	l0.2-187l-20.4-20.5V189.3l11-10.2c0,0,0-276.8,0.1-277.4"/>
<path id="bg4" fill="none" stroke="#52BC46" stroke-miterlimit="10" d="M220.5-98.1l-0.2,378.9l-31.2,30.9l-0.3,191.8l31.5,31.2
	l0.2,378.9"/>
<path id="bg5" fill="none" stroke="#52BC46" stroke-miterlimit="10" d="M293-95.6l-0.4,191.8l-14,13.8l-0.4,76.3l-11,11.1l-8.7,0.1
	L229.7,226l-0.6,363.3l29.3,28.9l8.7,0.1l11,11.1l0.4,59.8l9.8,9.8l0.4,206.3"/>
<path id="bg6" fill="none" stroke="#52BC46" stroke-miterlimit="10" d="M295.9-95.4l-0.6,199.6l-14,13.8l-0.3,55.2l12.2,12.1
	l-0.2,71.6L267.9,282l0.3,141.9l-19,18.7l-0.1,14l18.8,19l0.2,56.4l24.9,25l0.2,73.4L281,642.5l0.3,45.4l14,13.8l0.6,209.4"/>
<path id="bg7" fill="none" stroke="#52BC46" stroke-miterlimit="10" d="M304.5-94.9l0.1,352.1l41.3,41.5h8l12.2,12.5v32.3l10.3,10.3
	v30.8l10.3,10.1v43.2L376.4,448v13.4l-9.7,10.1v32.3l-12.8,13.1h-8l-55.2,55.4l-0.1,352.1"/>
<path id="bg8" fill="none" stroke="#52BC46" stroke-miterlimit="10" d="M309.6-94.9v352.5l36,36.2l27.8-0.2l10.5,10.7l0.3,208.1
	l-9.2,9.4l-29.6-0.2l-36,36.3v352.5"/>
<path id="bg9" fill="none" stroke="#52BC46" stroke-miterlimit="10" d="M299.7-94.8l0.2,352.5l48.9,49l-0.3,60l-29,29.3l-0.1,65.1
	l29,29.1l0.3,18.7l-64,64.1l-0.2,352.5"/>
<path id="bg10" fill="none" stroke="#52BC46" stroke-miterlimit="10" d="M314.3-94.2l0.2,316.5l9.6,9.6v36.4l22.3,22.2h17.4
	l14.4,14.2l0.4,208.6L366.8,525h-20.7l-22.3,22.2v36.4l-9.5,9.6l-0.2,316.5"/>
<path id="bg11" fill="none" stroke="#52BC46" stroke-miterlimit="10" d="M254.4-5.6c0.4-238,0,61.4,0,68L238.2,79v197.2l-31.8,31.9
	l0.2,12.6l-7.5,7.5l-0.1,22.9l-14.8,14.8L184,489l49.2,49.2V721l-7.7,7.5l0.3,185.5"/>
<path id="bg12" fill="none" stroke="#52BC46" stroke-miterlimit="10" d="M225.9-98.6L225.6,87l7.7,7.5v182.8L187,323.5l0.2,129.2
	l12.1,12.1l0.1,20.4l5.3,5.6l-0.1,14.9l33.3,33.4v197.3l16.2,16.6c0,6.6,0.4,306,0,68"/>
<path id="bg13" fill="none" stroke="#52BC46" stroke-miterlimit="10" d="M169.3,909.2v-94l-12.5-12.6V710l11.9-11.9V590.5
	l-11.5-11.7l-0.1-91.9l23.6-23.4l-0.1-37.4L157,402.8l0.1-168.9l11.5-11.7V114.6l-11.9-11.9V10.1l12.5-12.6v-94"/>
<path id="bg14" fill="none" stroke="#52BC46" stroke-miterlimit="10" d="M165.7,908c0.1-0.7,0-93.3,0-93.3l-12.4-12.1v-93.1
	l13.4-13.6v-91.5V468.7l11.6-11.5l-0.1-23l-11.6-11.5V208.3v-91.5l-13.4-13.6V10.1L165.6-2c0,0,0.1-92.6,0-93.3"/>
<path id="bg15" fill="none" stroke="#52BC46" stroke-miterlimit="10" d="M105.8,907.1c0.1,49.9,0.9-275.3,0.9-275.3l16.5-16.6
	l-0.1-23.3l17.4-17.4v-62l9.8-10.1l-0.1-192l-9.8-10.1v-62L123.1,221l0.1-23.3L106.6,181c0,0-0.8-325.3-0.9-275.3"/>
<path id="bg16" fill="none" stroke="#52BC46" stroke-miterlimit="10" d="M110.3,912.2c0.1-0.5,0.1-280.2,0.1-280.2l10.6-10.9l0.1-32
	l7.6-7.8l-0.1-349.9l-7.6-7.8l-0.1-32l-10.6-10.9c0,0,0-279.7-0.1-280.2"/>
<path id="bg17" fill="none" stroke="#52BC46" stroke-miterlimit="10" d="M101,912l0.2-378.9l60-59.5v-15.8l-8-7.3l-0.1-88l11.2-10.5
	v-9.5L101,279.7l-0.2-378.9"/>
<path id="bg18" fill="none" stroke="#52BC46" stroke-miterlimit="10" d="M161.8,911l0.4-191.8l14-13.8l0.4-76.3l11-11.1l-0.1-94.2
	l6.8-6.3V295.3l-6.9-6.3l0.1-94.2l-11-11.1l-0.4-76.4l-14-13.8l-0.4-191.8"/>
<path id="bg19" fill="none" stroke="#52BC46" stroke-miterlimit="10" d="M158.9,910.7l0.6-199.6l14-13.8l0.3-55.2l-36-35.9v-429
	l35.9-35.9l-0.3-25.9l-14-13.8L158.8-98"/>
<path id="bg20" fill="none" stroke="#52BC46" stroke-miterlimit="10" d="M150.3,910.2l-0.1-352.1l-46-46.3V462l-5.2-5V355.8l5.2-5
	V301l45.9-46.3l0.1-352.1"/>
<path id="bg21" fill="none" stroke="#52BC46" stroke-miterlimit="10" d="M145.2,910.2V557.7l-37-37.2l-0.1-228.1l37-37.2V-97.6"/>
<path id="bg22" fill="none" stroke="#52BC46" stroke-miterlimit="10" d="M155.1,910.1l-0.2-352.5l-41.3-41.3l0.3-60l21.2-21.8
	l-0.1-56.3l-21.2-21.8l-0.2-60l41.2-41.3L155-97.5"/>
<path id="bg23" fill="none" stroke="#52BC46" stroke-miterlimit="10" d="M217.9,912l-0.1-352.1L160,501.6l-0.4-20.6l5.2-5.3v-19.1
	l-1.7-1.6l-0.1-97.6l4.9-4.8V340l-8.5-8.6l0.4-20.6l57.8-58.1l0.1-352.1"/>
<path id="bg24" fill="none" stroke="#52BC46" stroke-miterlimit="10" d="M212.8,912V559.4l-40.8-41v-62.3l-11.7-11.6l-0.1-74.5
	l11.7-11.6v-64.3l40.8-41V-99.3"/>
<path id="bg25" fill="none" stroke="#52BC46" stroke-miterlimit="10" d="M98.1,909.9l0.3-185.5l5-4.4V521.4l22.4-22.4l0.1-20.9
	l14.9-14.9l-0.1-113.6l-14.9-15l-0.1-20.9l-22.3-22.4V92.7l-5-4.4L98.1-97.3"/>
<path id="bg26" fill="none" stroke="#52BC46" stroke-miterlimit="10" d="M173.3,818c-0.4,238,0-61.4,0-68l16.2-16.6V526.5l21.2-21.9
	v-13.4l-9.1-8.9l0.1-27.3l12.8-12.8l-0.1-71.5l-12.8-12.8l-0.1-27.3l10.3-9.7v-12l-22.4-22.5V79.3l-16.2-16.6c0-6.6-0.4-306,0-68"/>
<path id="bg27" fill="none" stroke="#52BC46" stroke-miterlimit="10" d="M200.4,818.5c-0.4,238,0-61.4,0-68l14.8-15.2V488.1
	l-10.7-10.3l0.1-21.1l13.3-13.3l-0.1-74.3l-13.3-13.3l-0.1-21.1l10.7-10.3V77.3l-14.7-15.1c0-6.6-0.4-306,0-68"/>
<path id="bg28" fill="none" stroke="#52BC46" stroke-miterlimit="10" d="M353.2,911.1V741.3l-12.5-12.6v-138l15.6-15.6l-0.1-103
	l10.5-10.9v-25.6l-10.5-10.8l0.1-187l-15.6-15.6v-138l12.5-12.6V-98.2"/>
<path id="bg29" fill="none" stroke="#52BC46" stroke-miterlimit="10" d="M349.6,909.8c0.1-0.7,0-169.1,0-169.1l-12.4-12.1v-143
	l17.2-17.4v-99.6l14.9-15.6l0.1-9.8l-15-15.7v-183l-17.2-17.4v-143L349.6,72c0,0,0.1-168.4,0-169.1"/>
<path id="bg30" fill="none" stroke="#52BC46" stroke-miterlimit="10" d="M405.7,907.2l0.1-277.4l5.8-4.9V521.3L389.3,499l0.1-183.2
	L412,293l0.2-104.3l-11.7-10.9c0,0,0-276.8-0.1-277.4"/>
<path id="bg31" fill="none" stroke="#52BC46" stroke-miterlimit="10" d="M391.2,912.3l0.2-378.9l31.3-31L422.2,310l-30.8-30.5
	l-0.2-378.9"/>
<path id="bg32" fill="none" stroke="#52BC46" stroke-miterlimit="10" d="M324.1,904.5l0.4-208.8l8.7-8.5l0.4-59.2l11-11.1l8.7-0.1
	l28.1-27.8l0.1-364.9l-28.2-27.8l-8.7-0.1l-11-11.1l-0.4-76.3l-14-13.8l-0.5-192"/>
<path id="bg33" fill="none" stroke="#52BC46" stroke-miterlimit="10" d="M315.8,909.6l0.6-210.1l14-13.8l0.3-44.7l-12.2-12l0.2-71.6
	l25.1-25.1l-0.3-57.9l20.3-20l-0.2-11.9l-19.7-20l-0.2-140.2l-24.9-25l-0.2-73.4l12.2-12.1l-0.3-55.2L316.4,103l-0.6-199.6"/>
<path id="bg34" fill="none" stroke="#52BC46" stroke-miterlimit="10" d="M320.8,922.8l-0.1-352.1l-54.9-55.1h-8L245.7,503v-32.3
	l-10.3-10.3v-12.7L223.6,436v-43.8l11.7-11.6v-27.8l9.7-10.1v-32.3l12.8-13.1h8l41.3-41.5l0.1-352.1"/>
<path id="bg35" fill="none" stroke="#52BC46" stroke-miterlimit="10" d="M302.1,909.1V556.6l-36-36.2l-27.8,0.2l-11.9-12.2
	l0.2-205.7l10.1-10.4l29.6,0.2l36-36.2V-96.3"/>
<path id="bg36" fill="none" stroke="#52BC46" stroke-miterlimit="10" d="M328.4,925.5L328.2,573l-65.4-65.5l0.3-17.4l29-29.3
	l0.1-66.4l-29-29.1l-0.3-60l48.9-49L312-96.2"/>
<path id="bg37" fill="none" stroke="#52BC46" stroke-miterlimit="10" d="M297.4,908.4l-0.2-316.5l-9.6-9.6v-36.4l-22.3-22.2H248
	l-15.5-15.2l0.2-207.5l12-11.8h20.7l22.3-22.2v-36.4l9.6-9.6l0.2-316.5"/>
<path id="bg38" fill="none" stroke="#52BC46" stroke-miterlimit="10" d="M385.8,912.8l0.3-185.5l-7.7-7.5V536.9l46.6-46.6l0-128.2
	l-12.7-12.7l-0.1-20.4l-5.3-5.6l0.1-14.9L373.6,275V77.7L357.4,61c0-6.6-0.4-306,0-68"/>
<path id="bg39" fill="none" stroke="#52BC46" stroke-miterlimit="10" d="M357.3,819.8c-0.4,238,0-61.4,0-68l16.2-16.6V538l31.8-31.9
	l-0.2-12.6l7.5-7.5l0.1-22.9l15.5-15.5l0.3-121.6l-50-50V93.1l7.7-7.5l-0.3-185.5"/>
<path id="bg40" fill="none" stroke="#52BC46" stroke-miterlimit="10" d="M442.3-95v94l12.5,12.6v92.6l-11.9,11.9v107.6l11.5,11.7
	l0.1,170.6l-23.6,23.4l0.1,36.9l23.6,23.4l-0.1,90.7L443,592.1v107.6l11.9,11.9v92.6l-12.5,12.6v94"/>
<path id="bg41" fill="none" stroke="#52BC46" stroke-miterlimit="10" d="M445.9-93.8c-0.1,0.7,0,93.3,0,93.3l12.4,12.1v93.1
	l-13.4,13.6v91.5v214.4l-11.5,11.5l0.1,25.5l11.6,11.5v133.1v91.5l13.4,13.6V804l-12.4,12.1c0,0-0.1,92.6,0,93.3"/>
<path id="bg42" fill="none" stroke="#52BC46" stroke-miterlimit="10" d="M505.8-92.8c-0.1-49.9-0.9,275.3-0.9,275.3l-16.5,16.6
	l0.1,23.3l-17.4,17.4v62l-9.8,10.1l0.1,192l9.8,10.1v62l17.4,17.4l-0.1,23.3l16.5,16.6c0,0,0.8,325.3,0.9,275.3"/>
<path id="bg43" fill="none" stroke="#52BC46" stroke-miterlimit="10" d="M501.3-97.9c-0.1,0.5-0.1,280.2-0.1,280.2l-10.6,10.9
	l-0.1,32L483,233l0.1,349.9l7.6,7.8l0.1,32l10.6,10.9c0,0,0,279.7,0.1,280.2"/>
<path id="bg44" fill="none" stroke="#52BC46" stroke-miterlimit="10" d="M510.6-97.7l-0.2,378.9L447.2,344v9.5l11.2,10.5l0.1,88
	l-8.8,8.2l-0.1,13.6l60.9,60.9l0.2,378.9"/>
<path id="bg45" fill="none" stroke="#52BC46" stroke-miterlimit="10" d="M449.9-96.7l-0.4,191.8l-14,13.8l-0.4,76.3l-11,11.1
	l0.1,94.2l-7.7,7.2l-0.2,220.1l7.9,7.4l-0.1,94.2l11,11.1l0.4,76.3l14,13.8l0.4,191.8"/>
<path id="bg46" fill="none" stroke="#52BC46" stroke-miterlimit="10" d="M452.8-96.5l-0.6,199.6l-14,13.8l-0.3,55.2l35.9,35.8
	l0.1,429.2l-36,35.8l0.3,25.9l14,13.8l0.6,199.6"/>
<path id="bg47" fill="none" stroke="#52BC46" stroke-miterlimit="10" d="M461.4-95.9l0.1,352.1l45.9,46.3v49.8l5.2,5l0.1,101.1
	l-5.2,5v49.8l-45.9,46.3l-0.1,352.1"/>
<path id="bg48" fill="none" stroke="#52BC46" stroke-miterlimit="10" d="M466.5-95.9v352.5l37,37.2l0.1,228.1l-37,37.2v352.5"/>
<path id="bg49" fill="none" stroke="#52BC46" stroke-miterlimit="10" d="M456.6-95.8l0.2,352.5L498,298l-0.3,60l-21.2,21.8l0.1,56.3
	l21.2,21.8l0.3,60l-41.2,41.3l-0.3,352.5"/>
<path id="bg50" fill="none" stroke="#52BC46" stroke-miterlimit="10" d="M393.7-97.7l0.1,352.1l57.8,58.1l0.4,20.6l-9.1,9.1v11.5
	l5.5,5.5l0.1,97.4l-1.9,2.1v18.4l5.4,5.4l-0.4,20.6l-57.8,58.1l-0.1,352.1"/>
<path id="bg51" fill="none" stroke="#52BC46" stroke-miterlimit="10" d="M398.8-97.7v352.5l40.8,41v62.3l11.7,11.6l0.1,32.1v42.4
	l-11.7,11.6V520l-40.8,41v352.5"/>
<path id="bg52" fill="none" stroke="#52BC46" stroke-miterlimit="10" d="M513.5-95.7l-0.3,185.5l-5,4.4v198.6l-22.4,22.4l-0.1,20.9
	l-14.9,15l0.1,113.6l14.9,15l0.1,20.9l22.4,22.4v198.6l5,4.4l0.3,185.5"/>
<path id="bg53" fill="none" stroke="#52BC46" stroke-miterlimit="10" d="M438.3-3.8c0.4-238,0,61.4,0,68L422,80.8v206.9l-21.2,21.9
	V323l9.1,8.9l-0.1,27.3L397,372.1l0.1,71.5l12.8,12.8l0.1,27.3l-10.3,9.7v12l22.4,22.5v206.9l16.2,16.6c0,6.6,0.4,306,0,68"/>
<path id="bg54" fill="none" stroke="#52BC46" stroke-miterlimit="10" d="M411.2-4.3c0.4-238,0,61.4,0,68l-14.8,15.2v247.2l10.7,10.3
	l-0.1,21.1l-13.3,13.3l0.1,74.3l13.3,13.3l0.1,21.1l-10.7,10.3V737l14.8,15.2c0,6.6,0.4,306,0,68"/>
<path id="bg13_2_" fill="none" stroke="#52BC46" stroke-miterlimit="10" d="M291.8,907.4v-94l-12.5-12.6v-92.6l11.9-11.9V588.7
	L279.7,577l-0.1-91.9l23.6-23.4l-0.1-37.4L279.5,401l0.1-168.9l11.5-11.7V112.8l-11.9-11.9V8.3l12.5-12.6v-94"/>
<path id="bg14_2_" fill="none" stroke="#52BC46" stroke-miterlimit="10" d="M288.2,906.2c0.1-0.7,0-93.3,0-93.3l-12.4-12.1v-93.1
	l13.4-13.6v-91.5V466.9l11.6-11.5l-0.1-23l-11.6-11.5V206.5V115l-13.4-13.6V8.3l12.4-12.1c0,0,0.1-92.6,0-93.3"/>
<path id="bg18_2_" fill="none" stroke="#52BC46" stroke-miterlimit="10" d="M284.4,909.1l0.4-191.8l14-13.8l0.4-76.3l11-11.1
	l-0.1-94.2l6.8-6.3V293.5l-6.9-6.3l0.1-94.2l-11-11.1l-0.4-76.4l-14-13.8l-0.4-191.8"/>
<path id="bg19_2_" fill="none" stroke="#52BC46" stroke-miterlimit="10" d="M281.4,908.9l0.6-199.6l14-13.8l0.3-55.2l-36-35.9V175.3
	l35.9-35.9l-0.3-25.9l-14-13.8l-0.6-199.6"/>
<path id="bg20_2_" fill="none" stroke="#52BC46" stroke-miterlimit="10" d="M272.9,908.4l-0.1-352.1l-46-46.3v-49.8l-5.2-5V354
	l5.2-5v-49.8l45.9-46.3l0.1-352.1"/>
<path id="bg21_2_" fill="none" stroke="#52BC46" stroke-miterlimit="10" d="M267.7,908.4V555.9l-37-37.2l-0.1-228.1l37-37.2V-99.4"
	/>
<path id="bg22_2_" fill="none" stroke="#52BC46" stroke-miterlimit="10" d="M277.6,908.3l-0.2-352.5l-41.3-41.3l0.3-60l21.2-21.8
	l-0.1-56.3l-21.2-21.8l-0.2-60l41.2-41.3l0.2-352.6"/>
<path id="bg26_2_" fill="none" stroke="#52BC46" stroke-miterlimit="10" d="M295.9,816.2c-0.4,238,0-61.4,0-68l16.2-16.6v-207
	l21.2-21.9v-13.4l-9.1-8.9l0.1-27.3l12.8-12.8l-0.1-71.5L324.2,356l-0.1-27.3l10.3-9.7v-12L312,284.4V77.5l-16.2-16.6
	c0-6.6-0.4-306,0-68"/>
<path id="bg5_3_" fill="none" stroke="#52BC46" stroke-miterlimit="10" d="M410.5-100.6l-0.4,191.8l-14,13.8l-0.4,76.3l-11,11.1
	l-8.7,0.1L347.3,221l-0.6,363.3l29.3,28.9l8.7,0.1l11,11.1l0.4,59.8l9.8,9.8l0.4,206.3"/>
<path id="bg6_3_" fill="none" stroke="#52BC46" stroke-miterlimit="10" d="M413.4-100.4l-0.6,199.6l-14,13.8l-0.3,55.2l12.2,12.1
	l-0.2,71.6L385.4,277l0.3,141.9l-19,18.7l-0.1,14l18.8,19l0.2,56.4l24.9,25l0.2,73.4l-12.2,12.1l0.3,45.4l14,13.8l0.6,209.4"/>
<path id="bg7_3_" fill="none" stroke="#52BC46" stroke-miterlimit="10" d="M422-99.9l0.1,352.1l41.3,41.5h8l12.2,12.5v32.3
	l10.3,10.3v30.8l10.3,10.1v43.2L493.9,443v13.4l-9.7,10.1v32.3l-12.8,13.1h-8l-55.2,55.4l-0.1,352.1"/>
<path id="bg8_3_" fill="none" stroke="#52BC46" stroke-miterlimit="10" d="M427.2-99.9v352.5l36,36.2l27.8-0.2l10.5,10.7l0.3,208.1
	l-9.2,9.4l-29.6-0.2l-36,36.3v352.5"/>
<path id="bg9_3_" fill="none" stroke="#52BC46" stroke-miterlimit="10" d="M417.3-99.8l0.2,352.5l48.9,49l-0.3,60l-29,29.3
	l-0.1,65.1l29,29.1l0.3,18.7l-64,64.1l-0.2,352.5"/>
<path id="bg10_3_" fill="none" stroke="#52BC46" stroke-miterlimit="10" d="M431.8-99.1l0.2,316.5l9.6,9.6v36.4l22.3,22.2h17.4
	l14.4,14.2l0.4,208.6l-11.7,11.7h-20.7l-22.3,22.2v36.4l-9.5,9.6l-0.2,316.5"/>
<path id="bg32_3_" fill="none" stroke="#52BC46" stroke-miterlimit="10" d="M441.6,899.6l0.4-208.8l8.7-8.5l0.4-59.2l11-11.1
	l8.7-0.1l28.1-27.8l0.1-364.9l-28.2-27.8l-8.7-0.1l-11-11.1l-0.4-76.3l-14-13.8l-0.4-191.8"/>
<path id="bg33_3_" fill="none" stroke="#52BC46" stroke-miterlimit="10" d="M433.3,904.7l0.6-210.1l14-13.8l0.3-44.7L436,624
	l0.2-71.6l25.1-25.1l-0.3-57.9l20.3-20l-0.2-11.9l-19.7-20l-0.2-140.2l-24.9-25l-0.2-73.4l12.2-12.1l-0.3-55.2L433.9,98l-0.6-199.6"
	/>
<path id="bg34_3_" fill="none" stroke="#52BC46" stroke-miterlimit="10" d="M438.4,917.8l-0.1-352.1l-54.9-55.1h-8l-12.2-12.5v-32.3
	l-10.3-10.3v-12.7l-11.8-11.7v-43.8l11.7-11.6v-27.8l9.7-10.1v-32.3l12.8-13.1h8l41.3-41.5l0.1-352.1"/>
<path id="bg35_3_" fill="none" stroke="#52BC46" stroke-miterlimit="10" d="M419.6,904.2V551.7l-36-36.2l-27.8,0.2l-11.9-12.2
	l0.2-205.7l10.1-10.4l29.6,0.2l36-36.2v-352.5"/>
<path id="bg36_3_" fill="none" stroke="#52BC46" stroke-miterlimit="10" d="M445.9,920.6L445.7,568l-65.4-65.5l0.3-17.4l29-29.3
	l0.1-66.4l-29-29.1l-0.3-60l48.9-49l0.2-352.5"/>
<path id="bg37_3_" fill="none" stroke="#52BC46" stroke-miterlimit="10" d="M415,903.5L414.8,587l-9.6-9.6V541l-22.3-22.2h-17.4
	L350,503.6l0.2-207.5l12-11.8h20.7l22.3-22.2v-36.4l9.6-9.6l0.2-316.5"/>
<path id="bg5_2_" fill="none" stroke="#52BC46" stroke-miterlimit="10" d="M176.6-101.6l-0.4,191.8l-14,13.8l-0.4,76.3l-11,11.1
	l-8.7,0.1L113.3,220l-0.6,363.3l29.3,28.9l8.7,0.1l11,11.1l0.4,59.8l9.8,9.8l0.4,206.3"/>
<path id="bg6_2_" fill="none" stroke="#52BC46" stroke-miterlimit="10" d="M179.5-101.4l-0.6,199.6l-14,13.8l-0.3,55.2l12.2,12.1
	l-0.2,71.6L151.5,276l0.3,141.9l-19,18.7l-0.1,14l18.8,19l0.2,56.4l24.9,25l0.2,73.4l-12.2,12.1l0.3,45.4l14,13.8l0.6,209.4"/>
<path id="bg7_2_" fill="none" stroke="#52BC46" stroke-miterlimit="10" d="M188.1-100.9l0.1,352.1l41.3,41.5h8l12.2,12.5v32.3
	l10.3,10.3v30.8l10.3,10.1v43.2L260,442v13.4l-9.7,10.1v32.3l-12.8,13.1h-8l-55.2,55.4l-0.1,352.1"/>
<path id="bg8_2_" fill="none" stroke="#52BC46" stroke-miterlimit="10" d="M193.3-100.9v352.5l36,36.2l27.8-0.2l10.5,10.7l0.3,208.1
	l-9.2,9.4l-29.6-0.2l-36,36.3v352.5"/>
<path id="bg9_2_" fill="none" stroke="#52BC46" stroke-miterlimit="10" d="M183.4-100.8l0.2,352.5l48.9,49l-0.3,60l-29,29.3
	l-0.1,65.1l29,29.1l0.3,18.7l-64,64.1l-0.2,352.5"/>
<path id="bg10_2_" fill="none" stroke="#52BC46" stroke-miterlimit="10" d="M197.9-100.2l0.2,316.5l9.6,9.6v36.4l22.3,22.2h17.4
	l14.4,14.2l0.4,208.6L250.5,519h-20.7l-22.3,22.2v36.4l-9.5,9.6l-0.2,316.5"/>
<path id="bg32_2_" fill="none" stroke="#52BC46" stroke-miterlimit="10" d="M207.7,898.6l0.4-208.8l8.7-8.5l0.4-59.2l11-11.1
	l8.7-0.1L265,583l0.1-364.9l-28.2-27.8l-8.7-0.1l-11-11.1l-0.4-76.3l-14-13.8l-0.4-191.8"/>
<path id="bg33_2_" fill="none" stroke="#52BC46" stroke-miterlimit="10" d="M199.4,903.7l0.6-210.1l14-13.8l0.3-44.7L202.1,623
	l0.2-71.6l25.1-25.1l-0.3-57.9l20.3-20l-0.2-11.9l-19.7-20l-0.2-140.2l-24.9-25l-0.2-73.4l12.2-12.1l-0.3-55.2L200,96.9l-0.6-199.6"
	/>
<path id="bg34_2_" fill="none" stroke="#52BC46" stroke-miterlimit="10" d="M204.5,916.8l-0.1-352.1l-54.9-55.1h-8l-12.2-12.5v-32.3
	L119,454.5v-12.7l-11.8-11.7v-43.8l11.7-11.6v-27.8l9.7-10.1v-32.3l12.8-13.1h8l41.3-41.5l0.1-352.1"/>
<path id="bg35_2_" fill="none" stroke="#52BC46" stroke-miterlimit="10" d="M185.7,903.2V550.7l-36-36.2l-27.8,0.2L110,502.5
	l0.2-205.7l10.1-10.4l29.6,0.2l36-36.2v-352.5"/>
<path id="bg36_2_" fill="none" stroke="#52BC46" stroke-miterlimit="10" d="M212,919.6L211.8,567l-65.4-65.5l0.3-17.4l29-29.3
	l0.1-66.4l-29-29.1l-0.3-60l48.9-49l0.2-352.5"/>
<path id="bg37_2_" fill="none" stroke="#52BC46" stroke-miterlimit="10" d="M181,902.5L180.8,586l-9.6-9.6V540L149,517.8h-17.4
	l-15.5-15.2l0.2-207.5l12-11.8H149l22.3-22.2v-36.4l9.6-9.6l0.2-316.5"/>
<path id="bg40_2_" fill="none" stroke="#52BC46" stroke-miterlimit="10" d="M324.6-95.9v94l12.5,12.6v92.6l-11.9,11.9v107.6
	l11.5,11.7l0.1,170.6l-23.6,23.4l0.1,36.9l23.6,23.4l-0.1,90.7l-11.5,11.7v107.6l11.9,11.9v92.6l-12.5,12.6v94"/>
<path id="bg41_2_" fill="none" stroke="#52BC46" stroke-miterlimit="10" d="M328.2-94.7c-0.1,0.7,0,93.3,0,93.3l12.4,12.1v93.1
	l-13.4,13.6V209v214.4l-11.5,11.5l0.1,25.5l11.6,11.5V605v91.5l13.4,13.6v93.1l-12.4,12.1c0,0-0.1,92.6,0,93.3"/>
<path id="bg45_2_" fill="none" stroke="#52BC46" stroke-miterlimit="10" d="M332.2-97.5l-0.4,191.8l-14,13.8l-0.4,76.3l-11,11.1
	l0.1,94.2l-7.7,7.2L298.6,517l7.9,7.4l-0.1,94.2l11,11.1l0.4,76.3l14,13.8l0.4,191.8"/>
<path id="bg46_2_" fill="none" stroke="#52BC46" stroke-miterlimit="10" d="M335.1-97.3l-0.6,199.6l-14,13.8l-0.3,55.2l35.9,35.8
	l0.1,429.2l-36,35.8l0.3,25.9l14,13.8l0.6,199.6"/>
<path id="bg47_2_" fill="none" stroke="#52BC46" stroke-miterlimit="10" d="M343.7-96.8l0.1,352.1l45.9,46.3v49.8l5.2,5l0.1,101.1
	l-5.2,5v49.8l-45.9,46.3l-0.1,352.1"/>
<path id="bg48_2_" fill="none" stroke="#52BC46" stroke-miterlimit="10" d="M348.8-96.8v352.5l37,37.2L386,521l-37,37.2v352.5"/>
<path id="bg49_2_" fill="none" stroke="#52BC46" stroke-miterlimit="10" d="M338.9-96.7l0.2,352.5l41.2,41.3l-0.3,60l-21.2,21.8
	l0.1,56.3l21.2,21.8l0.3,60l-41.2,41.3l-0.3,352.5"/>
<path id="bg53_2_" fill="none" stroke="#52BC46" stroke-miterlimit="10" d="M320.6-4.7c0.4-238,0,61.4,0,68l-16.2,16.6v206.9
	l-21.2,21.9v13.4l9.1,8.9l-0.1,27.3l-12.8,12.8l0.1,71.5l12.8,12.8l0.1,27.3l-10.3,9.7v12l22.4,22.5V734l16.2,16.6
	c0,6.6,0.4,306,0,68"/>
<path id="bg1_2_" fill="none" stroke="#52BC46" stroke-miterlimit="10" d="M118.3-100.8V69l12.5,12.6v137.9l-15.6,15.6l0.1,187
	l-10,10.4v26.3l10,10.5l-0.1,103.1l15.6,15.6v138l-12.6,12.6v169.8"/>
<path id="bg2_2_" fill="none" stroke="#52BC46" stroke-miterlimit="10" d="M121.9-99.6c-0.1,0.7,0,169.1,0,169.1l12.4,12.1v143
	L117.1,242v183.5l-14.9,15.6v9.8l14.9,15.6v99.2l17.2,17.4v143l-12.4,12.1c0,0-0.1,168.4,0,169.1"/>
<path id="bg5_4_" fill="none" stroke="#52BC46" stroke-miterlimit="10" d="M152.8-99.6l-0.4,191.8l-14,13.8l-0.4,76.3l-11,11.1
	l-8.7,0.1L89.5,222l-0.6,363.3l29.3,28.9l8.7,0.1l11,11.1l0.4,59.8l9.8,9.8l0.4,206.3"/>
<path id="bg6_4_" fill="none" stroke="#52BC46" stroke-miterlimit="10" d="M155.7-99.4l-0.6,199.6l-14,13.8l-0.3,55.2l12.2,12.1
	l-0.2,71.6L127.7,278l0.3,141.9l-19,18.7l-0.1,14l18.8,19l0.2,56.4l24.9,25l0.2,73.4l-12.2,12.1l0.3,45.4l14,13.8l0.6,209.4"/>
<path id="bg7_4_" fill="none" stroke="#52BC46" stroke-miterlimit="10" d="M164.3-98.9l0.1,352.1l41.3,41.5h8l12.2,12.5v32.3
	l10.3,10.3v30.8l10.3,10.1v43.2L236.2,444v13.4l-9.7,10.1v32.3l-12.8,13.1h-8l-55.2,55.4l-0.1,352.1"/>
<path id="bg8_4_" fill="none" stroke="#52BC46" stroke-miterlimit="10" d="M169.4-98.9v352.5l36,36.2l27.8-0.2l10.5,10.7l0.3,208.1
	l-9.2,9.4l-29.6-0.2l-36,36.3v352.5"/>
<path id="bg9_4_" fill="none" stroke="#52BC46" stroke-miterlimit="10" d="M159.6-98.8l0.2,352.5l48.9,49l-0.3,60l-29,29.3
	l-0.1,65.1l29,29.1l0.3,18.7l-64,64.1l-0.2,352.5"/>
<path id="bg10_4_" fill="none" stroke="#52BC46" stroke-miterlimit="10" d="M174.1-98.2l0.2,316.5l9.6,9.6v36.4l22.3,22.2h17.4
	l14.4,14.2l0.4,208.6L226.7,521H206l-22.3,22.2v36.4l-9.5,9.6L174,905.8"/>
<path id="bg11_2_" fill="none" stroke="#52BC46" stroke-miterlimit="10" d="M114.3-9.6c0.4-238,0,61.4,0,68L98,75v197.2l-31.8,31.9
	l0.2,12.6l-7.5,7.5l-0.1,22.9L44,362l-0.2,123.1L93,534.3v182.8l-7.7,7.5l0.3,185.5"/>
<path id="bg28_2_" fill="none" stroke="#52BC46" stroke-miterlimit="10" d="M213,907.1V737.3l-12.5-12.6V586.8l15.6-15.6l-0.1-103
	l10.5-10.9v-25.6L216,420.9l0.1-187l-15.6-15.6v-138L213,67.7v-169.8"/>
<path id="bg29_2_" fill="none" stroke="#52BC46" stroke-miterlimit="10" d="M209.4,905.9c0.1-0.7,0-169.1,0-169.1L197,724.7v-143
	l17.2-17.4v-99.6l14.9-15.6l0.1-9.8l-15-15.7v-183L197,223.3v-143l12.4-12.1c0,0,0.1-168.4,0-169.1"/>
<path id="bg32_4_" fill="none" stroke="#52BC46" stroke-miterlimit="10" d="M183.9,900.5l0.4-208.8l8.7-8.5l0.4-59.2l11-11.1
	l8.7-0.1l28.1-27.8l0.1-364.9L213,192.2l-8.7-0.1l-11-11.1l-0.4-76.3l-14-13.8l-0.4-191.8"/>
<path id="bg33_4_" fill="none" stroke="#52BC46" stroke-miterlimit="10" d="M175.6,905.7l0.6-210.1l14-13.8l0.3-44.7L178.3,625
	l0.2-71.6l25.1-25.1l-0.3-57.9l20.3-20l-0.2-11.9l-19.7-20l-0.2-140.2l-24.9-25l-0.2-73.4l12.2-12.1l-0.3-55.2L176.2,99l-0.6-199.6"
	/>
<path id="bg34_4_" fill="none" stroke="#52BC46" stroke-miterlimit="10" d="M180.6,918.8l-0.1-352.1l-54.9-55.1h-8l-12.2-12.5v-32.3
	l-10.3-10.3v-12.7l-11.8-11.7v-43.8L95,376.7v-27.8l9.7-10.1v-32.3l12.8-13.1h8l41.3-41.5l0.1-352.1"/>
<path id="bg35_4_" fill="none" stroke="#52BC46" stroke-miterlimit="10" d="M161.9,905.2V552.7l-36-36.2L98,516.6l-11.9-12.2
	l0.2-205.7l10.1-10.4l29.6,0.2l36-36.2v-352.5"/>
<path id="bg36_4_" fill="none" stroke="#52BC46" stroke-miterlimit="10" d="M188.2,921.5L188,569l-65.4-65.5l0.3-17.4l29-29.3
	l0.1-66.4l-29-29.1l-0.3-60l48.9-49l0.2-352.5"/>
<path id="bg37_4_" fill="none" stroke="#52BC46" stroke-miterlimit="10" d="M157.2,904.5L157,588l-9.6-9.6V542l-22.3-22.2h-17.4
	l-15.5-15.2L92.5,297l12-11.8h20.7l22.3-22.2v-36.4l9.6-9.6l0.2-316.5"/>
<path id="bg38_2_" fill="none" stroke="#52BC46" stroke-miterlimit="10" d="M245.6,908.8l0.3-185.5l-7.7-7.5V533l46.6-46.6
	l-0.1-128.2L272,345.4l-0.1-20.4l-5.3-5.6l0.1-14.9l-33.3-33.4V73.7l-16.2-16.6c0-6.6-0.4-306,0-68"/>
<path id="bg13_3_" fill="none" stroke="#52BC46" stroke-miterlimit="10" d="M151.6,903.5v-94l-12.5-12.6v-92.6l11.9-11.9V584.7
	L139.5,573l-0.1-91.9l23.6-23.4l-0.1-37.4L139.3,397l0.1-168.9l11.5-11.7V108.8L139,96.9V4.3l12.5-12.6v-94"/>
<path id="bg14_3_" fill="none" stroke="#52BC46" stroke-miterlimit="10" d="M148,902.3c0.1-0.7,0-93.3,0-93.3l-12.4-12.1v-93.1
	l13.4-13.6v-91.5V463l11.6-11.5l-0.1-23L148.9,417V202.6v-91.5l-13.4-13.6V4.3l12.4-12.1c0,0,0.1-92.6,0-93.3"/>
<path id="bg18_3_" fill="none" stroke="#52BC46" stroke-miterlimit="10" d="M144.2,905.2l0.4-191.8l14-13.8l0.4-76.3l11-11.1
	l-0.1-94.2l6.8-6.3V289.5l-6.9-6.3l0.1-94.2l-11-11.1l-0.4-76.4l-14-13.8L144.1-104"/>
<path id="bg19_3_" fill="none" stroke="#52BC46" stroke-miterlimit="10" d="M141.2,905l0.6-199.6l14-13.8l0.3-55.2l-36-35.9V171.4
	l35.9-35.9l-0.3-25.9l-14-13.8l-0.6-199.6"/>
<path id="bg20_3_" fill="none" stroke="#52BC46" stroke-miterlimit="10" d="M132.7,904.5l-0.1-352.1l-46-46.3v-49.8l-5.2-5V350.1
	l5.2-5v-49.8l45.9-46.3l0.1-352.1"/>
<path id="bg21_3_" fill="none" stroke="#52BC46" stroke-miterlimit="10" d="M127.5,904.5V552l-37-37.2l-0.1-228.1l37-37.2v-352.7"/>
<path id="bg22_3_" fill="none" stroke="#52BC46" stroke-miterlimit="10" d="M137.4,904.4l-0.2-352.5l-41.3-41.3l0.3-60l21.2-21.8
	l-0.1-56.3l-21.2-21.8l-0.2-60l41.2-41.3l0.2-352.6"/>
<path id="bg26_3_" fill="none" stroke="#52BC46" stroke-miterlimit="10" d="M155.7,812.3c-0.4,238,0-61.4,0-68l16.2-16.6v-207
	l21.2-21.9v-13.4l-9.1-8.9l0.1-27.3l12.8-12.8l-0.1-71.5L184,352l-0.1-27.3l10.3-9.7v-12l-22.4-22.5v-207l-16.2-16.6
	c0-6.6-0.4-306,0-68"/>
<path id="bg40_3_" fill="none" stroke="#52BC46" stroke-miterlimit="10" d="M184.4-99.9v94l12.5,12.6v92.6l-11.9,12v107.6l11.5,11.7
	l0.1,170.6L173,424.6l0.1,36.9l23.6,23.4l-0.1,90.7l-11.5,11.7v107.6l11.9,11.9v92.6L184.5,812v94"/>
<path id="bg41_3_" fill="none" stroke="#52BC46" stroke-miterlimit="10" d="M188.1-98.7c-0.1,0.7,0,93.3,0,93.3l12.4,12.1v93.1
	L187,113.5V205v214.4l-11.5,11.5l0.1,25.5l11.6,11.5V601v91.5l13.4,13.6v93.1l-12.4,12.1c0,0-0.1,92.6,0,93.3"/>
<path id="bg45_3_" fill="none" stroke="#52BC46" stroke-miterlimit="10" d="M192-101.5l-0.4,191.8l-14,13.8l-0.4,76.3l-11,11.1
	l0.1,94.2l-7.7,7.2L158.4,513l7.9,7.4l-0.1,94.2l11,11.1l0.4,76.3l14,13.8l0.4,191.8"/>
<path id="bg46_3_" fill="none" stroke="#52BC46" stroke-miterlimit="10" d="M194.9-101.3l-0.6,199.6l-14,13.8l-0.3,55.2l35.9,35.8
	l0.1,429.2l-36,35.8l0.3,25.9l14,13.8l0.6,199.6"/>
<path id="bg47_3_" fill="none" stroke="#52BC46" stroke-miterlimit="10" d="M203.5-100.8l0.1,352.1l45.9,46.3v49.8l5.2,5l0.1,101.1
	l-5.2,5v49.8l-45.9,46.3l-0.1,352.1"/>
<path id="bg48_3_" fill="none" stroke="#52BC46" stroke-miterlimit="10" d="M208.6-100.8v352.5l37,37.2l0.1,228.1l-37,37.2v352.5"/>
<path id="bg49_3_" fill="none" stroke="#52BC46" stroke-miterlimit="10" d="M198.8-100.7l0.2,352.5l41.2,41.3l-0.3,60l-21.2,21.8
	l0.1,56.3L240,453l0.3,60l-41.2,41.3l-0.3,352.5"/>
<path id="bg53_3_" fill="none" stroke="#52BC46" stroke-miterlimit="10" d="M180.4-8.7c0.4-238,0,61.4,0,68L164.1,76v206.9
	L143,304.8v13.4l9.1,8.9l-0.1,27.3l-12.8,12.8l0.1,71.5l12.8,12.8l0.1,27.3l-10.3,9.7v12l22.4,22.5v206.9l16.2,16.6
	c0,6.6,0.4,306,0,68"/>
<path id="bg3_3_" fill="none" stroke="#52BC46" stroke-miterlimit="10" d="M291.3,906.3L291.2,629l-5.2-4.4l0.3-104.3l20.7-20.9
	l0.2-187l-20.4-20.5V188.3l11-10.2c0,0,0-276.8,0.1-277.4"/>
<path id="bg4_3_" fill="none" stroke="#52BC46" stroke-miterlimit="10" d="M307.1-99.1l-0.2,378.9l-31.2,30.9l-0.3,191.8l31.5,31.2
	l0.2,378.9"/>
<path id="bg12_3_" fill="none" stroke="#52BC46" stroke-miterlimit="10" d="M312.5-99.6L312.2,86l7.7,7.5v182.8l-46.2,46.2
	l0.2,129.2l12.1,12.1l0.1,20.4l5.3,5.6l-0.1,14.9l33.3,33.4v197.3l16.2,16.6c0,6.6,0.4,306,0,68"/>
<path id="bg13_7_" fill="none" stroke="#52BC46" stroke-miterlimit="10" d="M255.9,908.2v-94l-12.5-12.6V709l11.9-11.9V589.5
	l-11.5-11.7l-0.1-91.9l23.6-23.4l-0.1-37.4l-23.6-23.3l0.1-168.9l11.5-11.7V113.6l-11.9-11.9V9.1l12.5-12.6v-94"/>
<path id="bg14_7_" fill="none" stroke="#52BC46" stroke-miterlimit="10" d="M252.2,907c0.1-0.7,0-93.3,0-93.3l-12.4-12.1v-93.1
	l13.4-13.6v-91.5V467.8l11.6-11.5l-0.1-23l-11.6-11.5V207.4v-91.5l-13.4-13.6V9.1L252.1-3c0,0,0.1-92.6,0-93.3"/>
<path id="bg15_3_" fill="none" stroke="#52BC46" stroke-miterlimit="10" d="M192.4,906.1c0.1,49.9,0.9-275.3,0.9-275.3l16.5-16.6
	l-0.1-23.3l17.4-17.4v-62l9.8-10.1l-0.1-192l-9.8-10.1v-62L209.7,220l0.1-23.3L193.2,180c0,0-0.8-325.3-0.9-275.3"/>
<path id="bg16_3_" fill="none" stroke="#52BC46" stroke-miterlimit="10" d="M196.8,911.2c0.1-0.5,0.1-280.2,0.1-280.2l10.6-10.9
	l0.1-32l7.6-7.8l-0.1-349.9l-7.6-7.8l-0.1-32l-10.6-10.9c0,0,0-279.7-0.1-280.2"/>
<path id="bg17_3_" fill="none" stroke="#52BC46" stroke-miterlimit="10" d="M187.6,911l0.2-378.9l60-59.5v-15.8l-8-7.3l-0.1-88
	l11.2-10.5v-9.5l-63.3-62.8l-0.2-378.9"/>
<path id="bg18_7_" fill="none" stroke="#52BC46" stroke-miterlimit="10" d="M248.4,910l0.4-191.8l14-13.8l0.4-76.3l11-11.1
	l-0.1-94.2l6.8-6.3V294.3L274,288l0.1-94.2l-11-11.1l-0.4-76.4l-14-13.8l-0.4-191.8"/>
<path id="bg19_7_" fill="none" stroke="#52BC46" stroke-miterlimit="10" d="M245.5,909.8l0.6-199.6l14-13.8l0.3-55.2l-36-35.9V176.2
	l35.9-35.9l-0.3-25.9l-14-13.8L245.4-99"/>
<path id="bg20_7_" fill="none" stroke="#52BC46" stroke-miterlimit="10" d="M236.9,909.3l-0.1-352.1l-46-46.3V461l-5.2-5V354.9
	l5.2-5V300l45.9-46.3l0.1-352.1"/>
<path id="bg21_7_" fill="none" stroke="#52BC46" stroke-miterlimit="10" d="M231.8,909.3V556.7l-37-37.2l-0.1-228.1l37-37.2V-98.5"
	/>
<path id="bg22_7_" fill="none" stroke="#52BC46" stroke-miterlimit="10" d="M241.6,909.2l-0.2-352.5l-41.3-41.3l0.3-60l21.2-21.8
	l-0.1-56.3l-21.2-21.8l-0.2-60l41.2-41.3l0.2-352.6"/>
<path id="bg23_3_" fill="none" stroke="#52BC46" stroke-miterlimit="10" d="M304.5,911l-0.1-352.1l-57.8-58.2l-0.4-20.6l5.2-5.3
	v-19.1l-1.7-1.6l-0.1-97.6l4.9-4.8V339l-8.5-8.6l0.4-20.6l57.8-58.1l0.1-352.1"/>
<path id="bg24_3_" fill="none" stroke="#52BC46" stroke-miterlimit="10" d="M299.4,911V558.5l-40.8-41v-62.3l-11.7-11.6l-0.1-74.5
	l11.7-11.6v-64.3l40.8-41v-352.6"/>
<path id="bg25_3_" fill="none" stroke="#52BC46" stroke-miterlimit="10" d="M184.6,909l0.3-185.5l5-4.4V520.4l22.4-22.4l0.1-20.9
	l14.9-14.9l-0.1-113.6l-14.9-15l-0.1-20.9L190,290.3V91.7l-5-4.4l-0.3-185.5"/>
<path id="bg26_7_" fill="none" stroke="#52BC46" stroke-miterlimit="10" d="M259.9,817c-0.4,238,0-61.4,0-68l16.2-16.6V525.5
	l21.2-21.9v-13.4l-9.1-8.9l0.1-27.3l12.8-12.8l-0.1-71.5l-12.8-12.8l-0.1-27.3l10.3-9.7v-12L276,285.2V78.3l-16.2-16.6
	c0-6.6-0.4-306,0-68"/>
<path id="bg27_3_" fill="none" stroke="#52BC46" stroke-miterlimit="10" d="M286.9,817.5c-0.4,238,0-61.4,0-68l14.8-15.2V487.1
	L291,476.8l0.1-21.1l13.3-13.3l-0.1-74.3L291,354.8l-0.1-21.1l10.7-10.3V76.3l-14.7-15.1c0-6.6-0.4-306,0-68"/>
<path id="bg5_8_" fill="none" stroke="#52BC46" stroke-miterlimit="10" d="M263.2-102.6l-0.4,191.8l-14,13.8l-0.4,76.3l-11,11.1
	l-8.7,0.1L199.9,219l-0.6,363.3l29.3,28.9l8.7,0.1l11,11.1l0.4,59.8l9.8,9.8l0.4,206.3"/>
<path id="bg6_8_" fill="none" stroke="#52BC46" stroke-miterlimit="10" d="M266.1-102.4l-0.6,199.6l-14,13.8l-0.3,55.2l12.2,12.1
	l-0.2,71.6L238.1,275l0.3,141.9l-19,18.7l-0.1,14l18.8,19l0.2,56.4l24.9,25l0.2,73.4l-12.2,12.1l0.3,45.4l14,13.8l0.6,209.4"/>
<path id="bg7_8_" fill="none" stroke="#52BC46" stroke-miterlimit="10" d="M274.7-101.9l0.1,352.1l41.3,41.5h8l12.2,12.5v32.3
	l10.3,10.3v30.8l10.3,10.1v43.2L346.6,441v13.4l-9.7,10.1v32.3L324,509.9h-8l-55.2,55.4l-0.1,352.1"/>
<path id="bg8_8_" fill="none" stroke="#52BC46" stroke-miterlimit="10" d="M279.8-101.9v352.5l36,36.2l27.8-0.2l10.5,10.7l0.3,208.1
	l-9.2,9.4l-29.6-0.2l-36,36.3v352.5"/>
<path id="bg9_8_" fill="none" stroke="#52BC46" stroke-miterlimit="10" d="M269.9-101.7l0.2,352.5l48.9,49l-0.3,60l-29,29.3
	l-0.1,65.1l29,29.1l0.3,18.7L255,566l-0.2,352.5"/>
<path id="bg10_8_" fill="none" stroke="#52BC46" stroke-miterlimit="10" d="M284.5-101.1l0.2,316.5l9.6,9.6v36.4l22.3,22.2H334
	l14.4,14.2l0.4,208.6L337,518.1h-20.7L294,540.3v36.4l-9.5,9.6l-0.2,316.5"/>
<path id="bg32_8_" fill="none" stroke="#52BC46" stroke-miterlimit="10" d="M294.3,897.6l0.4-208.8l8.7-8.5l0.4-59.2l11-11.1
	l8.7-0.1l28.1-27.8l0.1-364.9l-28.2-27.8l-8.7-0.1l-11-11.1l-0.4-76.3l-14-13.8L289-103.7"/>
<path id="bg33_8_" fill="none" stroke="#52BC46" stroke-miterlimit="10" d="M286,902.7l0.6-210.1l14-13.8l0.3-44.7L288.7,622
	l0.2-71.6l25.1-25.1l-0.3-57.9l20.3-20l-0.2-11.9l-19.7-20l-0.2-140.2l-24.9-25l-0.2-73.4l12.2-12.1l-0.3-55.2L286.6,96L286-103.7"
	/>
<path id="bg34_8_" fill="none" stroke="#52BC46" stroke-miterlimit="10" d="M291,915.8l-0.1-352.1L236,508.6h-8l-12.2-12.5v-32.3
	l-10.3-10.3v-12.7l-11.8-11.7v-43.8l11.7-11.6v-27.8l9.7-10.1v-32.3l12.8-13.1h8l41.3-41.5l0.1-352.1"/>
<path id="bg35_8_" fill="none" stroke="#52BC46" stroke-miterlimit="10" d="M272.3,902.2V549.7l-36-36.2l-27.8,0.2l-11.9-12.2
	l0.2-205.7l10.1-10.4l29.6,0.2l36-36.2v-352.5"/>
<path id="bg36_8_" fill="none" stroke="#52BC46" stroke-miterlimit="10" d="M298.6,918.6l-0.2-352.5L233,500.6l0.3-17.4l29-29.3
	l0.1-66.4l-29-29.1l-0.3-60l48.9-49l0.2-352.5"/>
<path id="bg37_8_" fill="none" stroke="#52BC46" stroke-miterlimit="10" d="M267.6,901.5L267.4,585l-9.6-9.6V539l-22.3-22.2h-17.4
	l-15.5-15.2l0.2-207.5l12-11.8h20.7l22.3-22.2v-36.4l9.6-9.6l0.2-316.5"/>
<path id="bg1_4_" fill="none" stroke="#52BC46" stroke-miterlimit="10" d="M204.9-101.8V68l12.5,12.6v137.9l-15.6,15.6l0.1,187
	l-10,10.4v26.3l10,10.5l-0.1,103.1l15.6,15.6v138l-12.6,12.6v169.8"/>
<path id="bg2_4_" fill="none" stroke="#52BC46" stroke-miterlimit="10" d="M208.5-100.6c-0.1,0.7,0,169.1,0,169.1l12.4,12.1v143
	L203.7,241v183.5l-14.9,15.6v9.8l14.9,15.6v99.2l17.2,17.4v143l-12.4,12.1c0,0-0.1,168.4,0,169.1"/>
<path id="bg5_7_" fill="none" stroke="#52BC46" stroke-miterlimit="10" d="M239.4-100.6L239,91.2L225,105l-0.4,76.3l-11,11.1
	l-8.7,0.1L176.1,221l-0.6,363.3l29.3,28.9l8.7,0.1l11,11.1l0.4,59.8l9.8,9.8l0.4,206.3"/>
<path id="bg6_7_" fill="none" stroke="#52BC46" stroke-miterlimit="10" d="M242.3-100.4l-0.6,199.6l-14,13.8l-0.3,55.2l12.2,12.1
	l-0.2,71.6L214.3,277l0.3,141.9l-19,18.7l-0.1,14l18.8,19l0.2,56.4l24.9,25l0.2,73.4l-12.2,12.1l0.3,45.4l14,13.8l0.6,209.4"/>
<path id="bg7_7_" fill="none" stroke="#52BC46" stroke-miterlimit="10" d="M250.9-99.9l0.1,352.1l41.3,41.5h8l12.2,12.5v32.3
	l10.3,10.3v30.8l10.3,10.1v43.2L322.8,443v13.4l-9.7,10.1v32.3l-12.8,13.1h-8l-55.2,55.4l-0.1,352"/>
<path id="bg8_7_" fill="none" stroke="#52BC46" stroke-miterlimit="10" d="M256-99.9v352.5l36,36.2l27.8-0.2l10.5,10.7l0.3,208.1
	l-9.2,9.4l-29.6-0.2l-36,36.3v352.5"/>
<path id="bg9_7_" fill="none" stroke="#52BC46" stroke-miterlimit="10" d="M246.1-99.8l0.2,352.5l48.9,49l-0.3,60l-29,29.3
	l-0.1,65.1l29,29.1l0.3,18.7l-64,64.1L231,920.4"/>
<path id="bg10_7_" fill="none" stroke="#52BC46" stroke-miterlimit="10" d="M260.7-99.2l0.2,316.5l9.6,9.6v36.4l22.3,22.2h17.4
	l14.4,14.2l0.4,208.6L313.3,520h-20.7l-22.3,22.2v36.4l-9.5,9.6l-0.2,316.5"/>
<path id="bg11_4_" fill="none" stroke="#52BC46" stroke-miterlimit="10" d="M200.8-10.6c0.4-238,0,61.4,0,68L184.6,74v197.2
	l-31.8,31.9l0.2,12.6l-7.5,7.5l-0.1,22.9L130.6,361l-0.2,123.1l49.2,49.2v182.8l-7.7,7.5l0.3,185.5"/>
<path id="bg28_4_" fill="none" stroke="#52BC46" stroke-miterlimit="10" d="M299.6,906.1V736.3l-12.5-12.6V585.8l15.6-15.6l-0.1-103
	l10.5-10.9v-25.6l-10.5-10.8l0.1-187l-15.6-15.6v-138l12.5-12.6v-169.8"/>
<path id="bg29_4_" fill="none" stroke="#52BC46" stroke-miterlimit="10" d="M296,904.9c0.1-0.7,0-169.1,0-169.1l-12.4-12.1v-143
	l17.2-17.4v-99.6l14.9-15.6l0.1-9.8l-15-15.7v-183l-17.2-17.4v-143l12.4-12c0,0,0.1-168.4,0-169.1"/>
<path id="bg32_7_" fill="none" stroke="#52BC46" stroke-miterlimit="10" d="M270.4,899.6l0.4-208.8l8.7-8.5l0.4-59.2l11-11.1
	l8.7-0.1l28.1-27.8l0.1-364.9l-28.2-27.8l-8.7-0.1l-11-11.1l-0.4-76.3l-14-13.8l-0.4-191.8"/>
<path id="bg33_7_" fill="none" stroke="#52BC46" stroke-miterlimit="10" d="M262.2,904.7l0.6-210.1l14-13.8l0.3-44.7L264.9,624
	l0.2-71.6l25.1-25.1l-0.3-57.9l20.3-20l-0.2-11.9l-19.7-20l-0.2-140.2l-24.9-25l-0.2-73.4l12.2-12.1l-0.3-55.2L262.8,98l-0.6-199.6"
	/>
<path id="bg34_7_" fill="none" stroke="#52BC46" stroke-miterlimit="10" d="M267.2,917.8l-0.1-352.1l-54.9-55.1h-8L192,498.1v-32.3
	l-10.3-10.3v-12.7L170,431.1v-43.8l11.7-11.6v-27.8l9.7-10.1v-32.3l12.8-13.1h8l41.3-41.5l0.1-352.1"/>
<path id="bg35_7_" fill="none" stroke="#52BC46" stroke-miterlimit="10" d="M248.5,904.2V551.7l-36-36.2l-27.8,0.2l-11.9-12.2
	l0.2-205.7l10.1-10.4l29.6,0.2l36-36.2v-352.5"/>
<path id="bg36_7_" fill="none" stroke="#52BC46" stroke-miterlimit="10" d="M274.8,920.5L274.6,568l-65.4-65.5l0.3-17.4l29-29.3
	l0.1-66.4l-29-29.1l-0.3-60l48.9-49l0.2-352.5"/>
<path id="bg37_7_" fill="none" stroke="#52BC46" stroke-miterlimit="10" d="M243.8,903.5L243.6,587l-9.6-9.6V541l-22.3-22.2h-17.4
	l-15.5-15.2L179,296l12-11.8h20.7L234,262v-36.4l9.6-9.6l0.2-316.5"/>
<path id="bg38_4_" fill="none" stroke="#52BC46" stroke-miterlimit="10" d="M332.2,907.8l0.3-185.5l-7.7-7.5V532l46.6-46.6
	l-0.1-128.2l-12.7-12.7l-0.1-20.4l-5.3-5.6l0.1-14.9L320,270.1V72.7l-16.2-16.6c0-6.6-0.4-306,0-68"/>
<path id="bg13_6_" fill="none" stroke="#52BC46" stroke-miterlimit="10" d="M238.2,902.5v-94l-12.5-12.6v-92.6l11.9-11.9V583.8
	l-11.5-11.7l-0.1-91.9l23.6-23.4l-0.1-37.4L225.9,396l0.1-168.9l11.5-11.7V107.9L225.6,96V3.3l12.5-12.6v-94"/>
<path id="bg14_6_" fill="none" stroke="#52BC46" stroke-miterlimit="10" d="M234.6,901.3c0.1-0.7,0-93.3,0-93.3l-12.4-12.1v-93.1
	l13.4-13.6v-91.5V462l11.6-11.5l-0.1-23L235.5,416V201.6v-91.5l-13.4-13.6V3.3l12.4-12.1c0,0,0.1-92.6,0-93.3"/>
<path id="bg18_6_" fill="none" stroke="#52BC46" stroke-miterlimit="10" d="M230.7,904.2l0.4-191.8l14-13.8l0.4-76.3l11-11.1
	l-0.1-94.2l6.8-6.3V288.6l-6.9-6.3l0.1-94.2l-11-11.1l-0.4-76.4l-14-13.8L230.6-105"/>
<path id="bg19_6_" fill="none" stroke="#52BC46" stroke-miterlimit="10" d="M227.8,904l0.6-199.6l14-13.8l0.3-55.2l-36-35.9V170.4
	l35.9-35.9l-0.3-25.9l-14-13.8l-0.6-199.6"/>
<path id="bg20_6_" fill="none" stroke="#52BC46" stroke-miterlimit="10" d="M219.2,903.5l-0.1-352.1l-46-46.3v-49.8l-5.2-5V349.1
	l5.2-5v-49.8L219,248l0.1-352.1"/>
<path id="bg21_6_" fill="none" stroke="#52BC46" stroke-miterlimit="10" d="M214.1,903.5V551l-37-37.2L177,285.6l37-37.2v-352.7"/>
<path id="bg22_6_" fill="none" stroke="#52BC46" stroke-miterlimit="10" d="M224,903.4l-0.2-352.5l-41.3-41.3l0.3-60l21.2-21.8
	l-0.1-56.3l-21.2-21.8l-0.2-60l41.2-41.3l0.2-352.6"/>
<path id="bg26_6_" fill="none" stroke="#52BC46" stroke-miterlimit="10" d="M242.2,811.3c-0.4,238,0-61.4,0-68l16.2-16.6v-207
	l21.2-21.9v-13.4l-9.1-8.9l0.1-27.3l12.8-12.8l-0.1-71.5L270.6,351l-0.1-27.3l10.3-9.7v-12l-22.4-22.5v-207l-16.2-16.6
	c0-6.6-0.4-306,0-68"/>
<path id="bg40_5_" fill="none" stroke="#52BC46" stroke-miterlimit="10" d="M271-100.9v94l12.5,12.6v92.6l-11.9,11.9v107.6
	l11.5,11.7l0.1,170.6l-23.6,23.4l0.1,36.9l23.6,23.4l-0.1,90.7l-11.5,11.7v107.6l11.9,11.9v92.6L271.1,811v94"/>
<path id="bg41_5_" fill="none" stroke="#52BC46" stroke-miterlimit="10" d="M274.6-99.7c-0.1,0.7,0,93.3,0,93.3L287,5.8v93.1
	l-13.4,13.6V204v214.4l-11.5,11.5l0.1,25.5l11.6,11.5V600v91.5l13.4,13.6v93.1l-12.4,12.1c0,0-0.1,92.6,0,93.3"/>
<path id="bg45_5_" fill="none" stroke="#52BC46" stroke-miterlimit="10" d="M278.6-102.5l-0.4,191.8l-14,13.8l-0.4,76.3l-11,11.1
	l0.1,94.2l-7.7,7.2L245,512.1l7.9,7.4l-0.1,94.2l11,11.1l0.4,76.3l14,13.8l0.4,191.8"/>
<path id="bg46_5_" fill="none" stroke="#52BC46" stroke-miterlimit="10" d="M281.5-102.3l-0.6,199.6l-14,13.8l-0.3,55.2l35.9,35.8
	l0.1,429.2l-36,35.8l0.3,25.9l14,13.8l0.6,199.6"/>
<path id="bg47_5_" fill="none" stroke="#52BC46" stroke-miterlimit="10" d="M290.1-101.8l0.1,352.1l45.9,46.3v49.8l5.2,5l0.1,101.1
	l-5.2,5v49.8l-45.9,46.3l-0.1,352.1"/>
<path id="bg48_5_" fill="none" stroke="#52BC46" stroke-miterlimit="10" d="M295.2-101.8v352.5l37,37.2l0.1,228.1l-37,37.2v352.5"/>
<path id="bg49_5_" fill="none" stroke="#52BC46" stroke-miterlimit="10" d="M285.3-101.7l0.2,352.5l41.2,41.3l-0.3,60l-21.2,21.8
	l0.1,56.3l21.2,21.8l0.3,60l-41.2,41.3l-0.3,352.5"/>
<path id="bg53_5_" fill="none" stroke="#52BC46" stroke-miterlimit="10" d="M267-9.7c0.4-238,0,61.4,0,68L250.7,75v206.9l-21.2,21.9
	v13.4l9.1,8.9l-0.1,27.3l-12.8,12.8l0.1,71.5l12.8,12.8l0.1,27.3l-10.3,9.7v12l22.4,22.5v206.9l16.2,16.6c0,6.6,0.4,306,0,68"/>
<path id="bg3_2_" fill="none" stroke="#52BC46" stroke-miterlimit="10" d="M396.6,913.8l-0.1-277.4l-5.2-4.4l0.3-104.3l20.7-20.9
	l0.2-187L392,299.4V195.8l11-10.2c0,0,0-276.8,0.1-277.4"/>
<path id="bg4_2_" fill="none" stroke="#52BC46" stroke-miterlimit="10" d="M412.4-91.5l-0.2,378.9L381,318.3l-0.3,191.8l31.5,31.2
	l0.2,378.9"/>
<path id="bg12_2_" fill="none" stroke="#52BC46" stroke-miterlimit="10" d="M417.7-92l-0.3,185.5l7.7,7.5v182.8L378.9,330l0.2,129.2
	l12.1,12.1l0.1,20.4l5.3,5.6l-0.1,14.9l33.3,33.4V743l16.2,16.6c0,6.6,0.4,306,0,68"/>
<path id="bg13_5_" fill="none" stroke="#52BC46" stroke-miterlimit="10" d="M361.1,915.8v-94l-12.5-12.6v-92.6l11.9-11.9V597
	L349,585.3l-0.1-91.9l23.6-23.4l-0.1-37.4l-23.6-23.3l0.1-168.9l11.5-11.7V121.1l-11.9-11.9V16.6L361,4v-94"/>
<path id="bg14_5_" fill="none" stroke="#52BC46" stroke-miterlimit="10" d="M357.5,914.6c0.1-0.7,0-93.3,0-93.3l-12.4-12.1V716
	l13.4-13.6v-91.5V475.3l11.6-11.5l-0.1-23l-11.6-11.5V214.9v-91.5L345,109.7V16.6l12.4-12.1c0,0,0.1-92.6,0-93.3"/>
<path id="bg15_2_" fill="none" stroke="#52BC46" stroke-miterlimit="10" d="M297.7,913.6c0.1,49.9,0.9-275.3,0.9-275.3l16.5-16.6
	l-0.1-23.3l17.4-17.4v-62l9.8-10.1l-0.1-192l-9.8-10.1v-62l-17.4-17.3l0.1-23.3l-16.5-16.6c0,0-0.8-325.3-0.9-275.3"/>
<path id="bg16_2_" fill="none" stroke="#52BC46" stroke-miterlimit="10" d="M302.1,918.7c0.1-0.5,0.1-280.2,0.1-280.2l10.6-10.9
	l0.1-32l7.6-7.8L320.4,238l-7.6-7.8l-0.1-32l-10.6-10.9c0,0,0-279.7-0.1-280.2"/>
<path id="bg17_2_" fill="none" stroke="#52BC46" stroke-miterlimit="10" d="M292.8,918.5l0.2-378.9l60-59.5v-15.8l-8-7.3l-0.1-88
	l11.2-10.5V349l-63.3-62.8l-0.2-378.9"/>
<path id="bg18_5_" fill="none" stroke="#52BC46" stroke-miterlimit="10" d="M353.7,917.5l0.4-191.8l14-13.8l0.4-76.3l11-11.1
	l-0.1-94.2l6.8-6.3V301.8l-6.9-6.3l0.1-94.2l-11-11.1l-0.4-76.4L354,100l-0.4-191.8"/>
<path id="bg19_5_" fill="none" stroke="#52BC46" stroke-miterlimit="10" d="M350.7,917.3l0.6-199.6l14-13.8l0.3-55.2l-36-35.9V183.7
	l35.9-35.9l-0.3-25.9l-14-13.8l-0.6-199.6"/>
<path id="bg20_5_" fill="none" stroke="#52BC46" stroke-miterlimit="10" d="M342.2,916.8l-0.1-352.1l-46-46.3v-49.8l-5.2-5V362.4
	l5.2-5v-49.8l45.9-46.3l0.1-352.1"/>
<path id="bg21_5_" fill="none" stroke="#52BC46" stroke-miterlimit="10" d="M337,916.8V564.3L300,527l-0.1-228.1l37-37.2V-91"/>
<path id="bg22_5_" fill="none" stroke="#52BC46" stroke-miterlimit="10" d="M346.9,916.7l-0.2-352.5l-41.3-41.3l0.3-60l21.2-21.8
	l-0.1-56.3L305.6,363l-0.2-60l41.2-41.3l0.2-352.6"/>
<path id="bg23_2_" fill="none" stroke="#52BC46" stroke-miterlimit="10" d="M409.8,918.5l-0.1-352.1l-57.8-58.2l-0.4-20.6l5.2-5.3
	v-19.1l-1.7-1.6l-0.1-97.6l4.9-4.8v-12.6l-8.5-8.6l0.4-20.6l57.8-58.1l0.1-352.1"/>
<path id="bg24_2_" fill="none" stroke="#52BC46" stroke-miterlimit="10" d="M404.6,918.5V566l-40.8-41v-62.3l-11.7-11.6l-0.1-74.5
	l11.7-11.6v-64.3l40.8-41V-92.7"/>
<path id="bg25_2_" fill="none" stroke="#52BC46" stroke-miterlimit="10" d="M289.9,916.5l0.3-185.5l5-4.4V527.9l22.4-22.4l0.1-20.9
	l14.9-14.9l-0.1-113.6l-14.9-15l-0.1-20.9l-22.3-22.4V99.2l-5-4.4l-0.3-185.5"/>
<path id="bg26_5_" fill="none" stroke="#52BC46" stroke-miterlimit="10" d="M365.2,824.6c-0.4,238,0-61.4,0-68l16.2-16.6V533
	l21.2-21.9v-13.4l-9.1-8.9l0.1-27.3l12.8-12.8l-0.1-71.5l-12.8-12.8l-0.1-27.3l10.3-9.7v-12l-22.4-22.5V85.8l-16.2-16.6
	c0-6.6-0.4-306,0-68"/>
<path id="bg27_2_" fill="none" stroke="#52BC46" stroke-miterlimit="10" d="M392.2,825.1c-0.4,238,0-61.4,0-68l14.8-15.2V494.6
	l-10.7-10.3l0.1-21.1l13.3-13.3l-0.1-74.3l-13.3-13.3l-0.1-21.1l10.7-10.3V83.8l-14.7-15.1c0-6.6-0.4-306,0-68"/>
<path id="bg5_6_" fill="none" stroke="#52BC46" stroke-miterlimit="10" d="M368.5-95L368,96.8l-14,13.8l-0.4,76.3l-11,11.1l-8.7,0.1
	l-28.8,28.5l-0.6,363.3l29.3,28.9l8.7,0.1l11,11.1l0.4,59.8l9.8,9.8l0.4,206.3"/>
<path id="bg6_6_" fill="none" stroke="#52BC46" stroke-miterlimit="10" d="M371.4-94.8l-0.6,199.6l-14,13.8l-0.3,55.2l12.2,12.1
	l-0.2,71.6l-25.1,25.1l0.3,141.9l-19,18.7l-0.1,14l18.8,19l0.2,56.4l24.9,25l0.2,73.4l-12.2,12.1l0.3,45.4l14,13.8l0.6,209.4"/>
<path id="bg7_6_" fill="none" stroke="#52BC46" stroke-miterlimit="10" d="M380-94.3l0.1,352.1l41.3,41.5h8l12.2,12.5V344l10.3,10.3
	v30.8l10.3,10.1v43.2l-10.3,10.1v13.4l-9.7,10.1v32.3l-12.8,13.1h-8l-55.2,55.4L366,924.9"/>
<path id="bg8_6_" fill="none" stroke="#52BC46" stroke-miterlimit="10" d="M385.1-94.3v352.5l36,36.2l27.8-0.2l10.5,10.7l0.3,208.1
	l-9.2,9.4l-29.6-0.2l-36,36.3V911"/>
<path id="bg9_6_" fill="none" stroke="#52BC46" stroke-miterlimit="10" d="M375.2-94.2l0.2,352.5l48.9,49l-0.3,60l-29,29.3
	l-0.1,65.1l29,29.1l0.3,18.7l-64,64.1L360.1,926"/>
<path id="bg10_6_" fill="none" stroke="#52BC46" stroke-miterlimit="10" d="M389.7-93.6l0.2,316.5l9.6,9.6v36.4l22.3,22.2h17.4
	l14.4,14.2l0.4,208.6l-11.7,11.7h-20.7l-22.3,22.2v36.4l-9.5,9.6l-0.2,316.5"/>
<path id="bg32_6_" fill="none" stroke="#52BC46" stroke-miterlimit="10" d="M399.5,905.1l0.4-208.8l8.7-8.5l0.4-59.2l11-11.1
	l8.7-0.1l28.1-27.8l0.1-364.9l-28.2-27.8l-8.7-0.1l-11-11.1l-0.4-76.3l-14-13.8l-0.4-191.8"/>
<path id="bg33_6_" fill="none" stroke="#52BC46" stroke-miterlimit="10" d="M391.3,910.2l0.6-210.1l14-13.8l0.3-44.7l-12.2-12
	l0.2-71.6l25.1-25.1L419,475l20.3-20l-0.2-11.9l-19.7-20l-0.2-140.2l-24.9-25l-0.2-73.4l12.2-12.1L406,117l-14.1-13.6l-0.6-199.6"/>
<path id="bg34_6_" fill="none" stroke="#52BC46" stroke-miterlimit="10" d="M396.3,923.4l-0.1-352.1l-54.9-55.1h-8l-12.2-12.5v-32.3
	l-10.3-10.3v-12.7L299,436.7v-43.8l11.7-11.6v-27.8l9.7-10.1V311l12.8-13.1h8l41.3-41.5l0.1-352.1"/>
<path id="bg35_6_" fill="none" stroke="#52BC46" stroke-miterlimit="10" d="M377.5,909.7V557.2l-36-36.2l-27.8,0.2L301.8,509
	l0.2-205.7l10.1-10.4l29.6,0.2l36-36.2V-95.6"/>
<path id="bg36_6_" fill="none" stroke="#52BC46" stroke-miterlimit="10" d="M403.9,926.1l-0.2-352.5l-65.4-65.5l0.3-17.4l29-29.3
	l0.1-66.4l-29-29.1l-0.3-60l48.9-49l0.2-352.5"/>
<path id="bg37_6_" fill="none" stroke="#52BC46" stroke-miterlimit="10" d="M372.9,909l-0.2-316.5l-9.6-9.6v-36.4l-22.3-22.2h-17.4
	l-15.5-15.2l0.2-207.5l12-11.8h20.7l22.3-22.2v-36.4l9.6-9.6l0.2-316.5"/>
<path id="bg1_3_" fill="none" stroke="#52BC46" stroke-miterlimit="10" d="M310.1-94.3V75.5l12.5,12.6V226L307,241.7l0.1,187
	l-10,10.4v26.3l10,10.5L307,579l15.6,15.6v137.9L310,745.1v169.8"/>
<path id="bg2_3_" fill="none" stroke="#52BC46" stroke-miterlimit="10" d="M313.8-93.1c-0.1,0.7,0,169.1,0,169.1l12.4,12.1v143
	L309,248.4V432l-14.9,15.6v9.8L309,473v99.2l17.2,17.4v143l-12.4,12.1c0,0-0.1,168.4,0,169.1"/>
<path id="bg5_5_" fill="none" stroke="#52BC46" stroke-miterlimit="10" d="M344.6-93.1l-0.4,191.8l-14,13.8l-0.4,76.3l-11,11.1
	l-8.7,0.1l-28.8,28.5l-0.6,363.3l29.3,28.9l8.7,0.1l11,11.1l0.4,59.8l9.8,9.8l0.4,206.3"/>
<path id="bg6_5_" fill="none" stroke="#52BC46" stroke-miterlimit="10" d="M347.6-92.9L347,106.7l-14,13.8l-0.3,55.2l12.2,12.1
	l-0.2,71.6l-25.1,25.1l0.3,141.9l-19,18.7l-0.1,14l18.8,19l0.2,56.4l24.9,25l0.2,73.4L332.7,645l0.3,45.4l14,13.8l0.6,209.4"/>
<path id="bg7_5_" fill="none" stroke="#52BC46" stroke-miterlimit="10" d="M356.1-92.4l0.1,352.1l41.3,41.5h8l12.2,12.5V346
	l10.3,10.3v30.8l10.3,10.1v43.2l-10.3,10v13.4l-9.7,10.1v32.3l-12.8,13.1h-8l-55.2,55.4l-0.1,352.1"/>
<path id="bg8_5_" fill="none" stroke="#52BC46" stroke-miterlimit="10" d="M361.3-92.4v352.5l36,36.2l27.8-0.2l10.5,10.7l0.3,208.1
	l-9.2,9.4l-29.6-0.2l-36,36.3V913"/>
<path id="bg9_5_" fill="none" stroke="#52BC46" stroke-miterlimit="10" d="M351.4-92.3l0.2,352.5l48.9,49l-0.3,60l-29,29.3
	l-0.1,65.1l29,29.1l0.3,18.7l-64,64.1L336.3,928"/>
<path id="bg10_5_" fill="none" stroke="#52BC46" stroke-miterlimit="10" d="M365.9-91.7l0.2,316.5l9.6,9.6v36.4L398,293h17.4
	l14.4,14.2l0.4,208.6l-11.7,11.7h-20.7l-22.3,22.2v36.4l-9.5,9.6l-0.2,316.5"/>
<path id="bg11_3_" fill="none" stroke="#52BC46" stroke-miterlimit="10" d="M306.1-3.1c0.4-238,0,61.4,0,68l-16.2,16.6v197.2
	l-31.8,31.9l0.2,12.6l-7.5,7.5l-0.1,22.9l-14.8,14.8l-0.2,123.1l49.2,49.2v182.8l-7.7,7.5l0.3,185.5"/>
<path id="bg28_3_" fill="none" stroke="#52BC46" stroke-miterlimit="10" d="M404.9,913.6V743.8l-12.5-12.6V593.3l15.6-15.6l-0.1-103
	l10.5-10.9v-25.6l-10.5-10.8l0.1-187l-15.6-15.6v-138l12.5-12.6V-95.6"/>
<path id="bg29_3_" fill="none" stroke="#52BC46" stroke-miterlimit="10" d="M401.2,912.4c0.1-0.7,0-169.1,0-169.1l-12.4-12.1v-143
	l17.2-17.4v-99.6l14.9-15.6l0.1-9.8l-15-15.7v-183l-17.2-17.4v-143l12.4-12.1c0,0,0.1-168.4,0-169.1"/>
<path id="bg32_5_" fill="none" stroke="#52BC46" stroke-miterlimit="10" d="M375.7,907.1l0.4-208.8l8.7-8.5l0.4-59.2l11-11.1
	l8.7-0.1l28.1-27.8l0.1-364.9l-28.2-27.8l-8.7-0.1l-11-11.1l-0.4-76.3l-14-13.8l-0.4-191.8"/>
<path id="bg33_5_" fill="none" stroke="#52BC46" stroke-miterlimit="10" d="M367.4,912.2l0.6-210.1l14-13.8l0.3-44.7l-12.2-12.1
	l0.2-71.6l25.1-25.1l-0.3-57.9l20.3-20l-0.2-11.9l-19.7-20l-0.2-140.2l-24.9-25l-0.2-73.4l12.2-12.1l-0.3-55.2L368,105.4l-0.6-199.6
	"/>
<path id="bg34_5_" fill="none" stroke="#52BC46" stroke-miterlimit="10" d="M372.5,925.3l-0.1-352.1l-54.9-55.1h-8l-12.2-12.5v-32.3
	L287,463v-12.7l-11.8-11.7v-43.8l11.7-11.6v-27.8l9.7-10.1V313l12.8-13.1h8l41.3-41.5l0.1-352.1"/>
<path id="bg35_5_" fill="none" stroke="#52BC46" stroke-miterlimit="10" d="M353.7,911.7V559.2l-36-36.2l-27.8,0.2L278,511
	l0.2-205.7l10.1-10.4l29.6,0.2l36-36.2V-93.7"/>
<path id="bg36_5_" fill="none" stroke="#52BC46" stroke-miterlimit="10" d="M380.1,928.1l-0.2-352.5l-65.4-65.5l0.3-17.4l29-29.3
	l0.1-66.4l-29-29.1l-0.3-60l48.9-49l0.2-352.5"/>
<path id="bg37_5_" fill="none" stroke="#52BC46" stroke-miterlimit="10" d="M349.1,911l-0.2-316.5l-9.6-9.6v-36.4L317,526.3h-17.4
	l-15.5-15.2l0.2-207.5l12-11.8H317l22.3-22.2v-36.4l9.6-9.6L349.1-93"/>
<path id="bg38_3_" fill="none" stroke="#52BC46" stroke-miterlimit="10" d="M437.5,915.3l0.3-185.5l-7.7-7.5V539.5l46.6-46.6
	l-0.1-128.2L463.9,352l-0.1-20.4l-5.3-5.6l0.1-14.9l-33.3-33.4V80.3L409,63.6c0-6.6-0.4-306,0-68"/>
<path id="bg13_4_" fill="none" stroke="#52BC46" stroke-miterlimit="10" d="M343.5,910v-94L331,803.4v-92.6l11.9-11.9V591.3
	l-11.5-11.7l-0.1-91.9l23.6-23.4l-0.1-37.4l-23.6-23.3l0.1-168.9l11.5-11.7V115.4l-11.9-11.9V10.8l12.5-12.6v-94"/>
<path id="bg14_4_" fill="none" stroke="#52BC46" stroke-miterlimit="10" d="M339.8,908.8c0.1-0.7,0-93.3,0-93.3l-12.4-12.1v-93.1
	l13.4-13.6v-91.5V469.5l11.6-11.5l-0.1-23l-11.6-11.5V209.1v-91.5L327.3,104V10.8l12.4-12.1c0,0,0.1-92.6,0-93.3"/>
<path id="bg18_4_" fill="none" stroke="#52BC46" stroke-miterlimit="10" d="M336,911.7l0.4-191.8l14-13.8l0.4-76.3l11-11.1
	l-0.1-94.2l6.8-6.3V296.1l-6.9-6.3l0.1-94.2l-11-11.1l-0.4-76.4l-14-13.8l-0.4-191.8"/>
<path id="bg19_4_" fill="none" stroke="#52BC46" stroke-miterlimit="10" d="M333.1,911.5l0.6-199.6l14-13.8l0.3-55.2L312,607V177.9
	l35.9-35.9l-0.3-25.9l-14-13.8L333-97.3"/>
<path id="bg20_4_" fill="none" stroke="#52BC46" stroke-miterlimit="10" d="M324.5,911l-0.1-352.1l-46-46.3v-49.8l-5.2-5V356.6
	l5.2-5v-49.8l45.9-46.3l0.1-352.1"/>
<path id="bg21_4_" fill="none" stroke="#52BC46" stroke-miterlimit="10" d="M319.4,911V558.5l-37-37.2l-0.1-228.1l37-37.2V-96.8"/>
<path id="bg22_4_" fill="none" stroke="#52BC46" stroke-miterlimit="10" d="M329.3,910.9l-0.2-352.5l-41.3-41.3l0.3-60l21.2-21.8
	l-0.1-56.3L288,357.2l-0.2-60l41.2-41.3l0.2-352.6"/>
<path id="bg26_4_" fill="none" stroke="#52BC46" stroke-miterlimit="10" d="M347.5,818.8c-0.4,238,0-61.4,0-68l16.2-16.6v-207
	l21.2-21.9v-13.4l-9.1-8.9l0.1-27.3l12.8-12.8l-0.1-71.5l-12.8-12.8l-0.1-27.3l10.3-9.7v-12L363.7,287V80.1l-16.2-16.6
	c0-6.6-0.4-306,0-68"/>
<path id="bg40_4_" fill="none" stroke="#52BC46" stroke-miterlimit="10" d="M376.3-93.3v94l12.5,12.6v92.6l-11.9,11.9v107.6
	l11.5,11.7l0.1,170.6l-23.6,23.4L365,468l23.6,23.4l-0.1,90.7L377,593.8v107.6l11.9,11.9v92.6l-12.5,12.6v94"/>
<path id="bg41_4_" fill="none" stroke="#52BC46" stroke-miterlimit="10" d="M379.9-92.1c-0.1,0.7,0,93.3,0,93.3l12.4,12.1v93.1
	L378.9,120v91.5v214.4l-11.5,11.5l0.1,25.5l11.6,11.5v133.1V699l13.4,13.6v93.1l-12.4,12.1c0,0-0.1,92.6,0,93.3"/>
<path id="bg45_4_" fill="none" stroke="#52BC46" stroke-miterlimit="10" d="M383.8-95l-0.4,191.8l-14,13.8l-0.4,76.3L358,198
	l0.1,94.2l-7.7,7.2l-0.2,220.1l7.9,7.4l-0.1,94.2l11,11.1l0.4,76.3l14,13.8l0.4,191.8"/>
<path id="bg46_4_" fill="none" stroke="#52BC46" stroke-miterlimit="10" d="M386.8-94.8l-0.6,199.6l-14,13.8l-0.3,55.2l35.9,35.8
	l0.1,429.2l-36,35.8l0.3,25.9l14,13.8l0.6,199.6"/>
<path id="bg47_4_" fill="none" stroke="#52BC46" stroke-miterlimit="10" d="M395.3-94.3l0.1,352.1l45.9,46.3V354l5.2,5l0.1,101.1
	l-5.2,5V515l-45.9,46.3l-0.1,352.1"/>
<path id="bg48_4_" fill="none" stroke="#52BC46" stroke-miterlimit="10" d="M400.5-94.3v352.5l37,37.2l0.1,228.1l-37,37.2v352.5"/>
<path id="bg49_4_" fill="none" stroke="#52BC46" stroke-miterlimit="10" d="M390.6-94.2l0.2,352.5l41.2,41.3l-0.3,60l-21.2,21.8
	l0.1,56.3l21.2,21.8l0.3,60l-41.2,41.3l-0.3,352.5"/>
<path id="bg53_4_" fill="none" stroke="#52BC46" stroke-miterlimit="10" d="M372.2-2.1c0.4-238,0,61.4,0,68L356,82.5v206.9
	l-21.2,21.9v13.4l9.1,8.9l-0.1,27.3L331,373.8l0.1,71.5l12.8,12.8l0.1,27.3l-10.3,9.7v12l22.4,22.5v206.9l16.2,16.6
	c0,6.6,0.4,306,0,68"/>
	
	</pattern>
</svg>
