			 			<svg version="1.1" id="leftpadder" xmlns="http://www.w3.org/2000/svg"  x="0px" y="0px" width="150" height="100%" viewBox="20 0 130 800" xml:space="preserve" preserveAspectRatio="xMinYMin slice">
                			<path id="bg61" class="background_line inner 1 inav white" d="M39.814,864.499l0.399-190.1l13.9-13.7l0.4-75.6l10.9-11l8.6-0.1l28.985-28.62l-0.53-360.12L73.95,157.099l-8.6-0.1l-10.9-11l-0.4-75.6l-13.9-13.7l-0.399-190.1"/>
         					<path id="bg62" class="background_line inner 2 inav white"  d="M36.912,864.299l0.6-197.8l6.8-20.8l0.299-54.7l-5-4.9l0.184-72.774l24.737-24.768l0.156-55.898l18.552-18.806l-0.118-89.467l-18.794-18.539l0.26-65.039l-24.852-24.856l-0.185-70.953l12.1-12l-0.299-54.7l-13.9-13.7l-0.6-197.8"/>
         					<path id="bg63" class="background_line outer 5 inav white"  d="M25.6-134.004l0.101,349l40.901,41.1H74.5l5.213,5.512v51.573l9.584,9.969v8.074l19.159,18.985l0.023,43.407l-11.672,11.512v12.632l-10.153,10.247v32L74.56,472.398h-7.899l-40.9,41.1l-0.101,349"/>
         					<path id="bg64" class="background_line middle 4 inav white"  d="M30.7-134.002v349.399l35.7,35.9l29.252-0.168l10.012,10.255l0.169,203.929l-11.8,12.056l-27.572-0.169l-35.7,35.9v349.399"/>
         					<path id="bg65" class="background_line outer 6 inav white"  d="M20.901-133.901l0.199,349.4l48.501,48.6l-0.301,59.5l10.375,10.319l0.01,72.704l-10.325,10.57l0.301,47.207l-48.501,48.6l-0.199,349.4"/>
         					<path id="bg66" class="background_line middle 3 inav white" d="M35.299-133.302l0.199,313.7l9.5,9.5V226L67.1,248h20.451l11.95,11.709l0.189,205.658l-15.33,15.131h-17.2l-22.101,22v36.101l-9.5,9.5l-0.199,313.7"/>
              			</svg>