<?xml version="1.0" encoding="utf-8"?>
<!-- Generator: Adobe Illustrator 19.2.0, SVG Export Plug-In . SVG Version: 6.00 Build 0)  -->
<svg version="1.1" id="logobackgroundcontainer" xmlns="http://www.w3.org/2000/svg" xmlns:xlink="http://www.w3.org/1999/xlink"
	 x="0px" y="0px" viewBox="0 0 612 792" style="enable-background:new 0 0 612 792;" xml:space="preserve">
<style type="text/css">
	.st0{fill:none;stroke:#000000;stroke-miterlimit:10;}
</style>
<path id="bg36" class="st0" d="M229.9,917.3l-0.2-349.4L164.9,503l0.3-17.2l28.7-29L194,391l-28.7-28.8l-0.3-59.5l48.5-48.6
	l0.2-349.4"/>
<path id="bg34" class="st0" d="M222.4,914.6l-0.1-349L167.9,511H160l-12.1-12.4v-32l-10.2-10.2v-12.6L126,432.2v-43.4l11.6-11.5
	v-27.6l9.6-10v-32l12.7-13h7.9l40.9-41.1l0.1-349"/>
<path id="bg35" class="st0" d="M203.8,901.1V551.7l-35.7-35.9l-27.6,0.2l-11.8-12.1l0.2-203.9l10-10.3l29.3,0.2l35.7-35.9V-95.4"/>
<path id="bg37" class="st0" d="M199.2,900.4L199,586.7l-9.5-9.5v-36.1l-22.1-22h-17.2L134.8,504l0.2-205.7l11.9-11.7h20.5l22.1-22
	v-36.1l9.5-9.5l0.2-313.7"/>
<path id="bg6" class="st0" d="M197.7-94.6l-0.6,197.8l-13.9,13.7l-0.3,54.7l12.1,12l-0.2,71l-24.9,24.9l0.3,140.6l-18.8,18.5
	l-0.1,13.9l18.6,18.8l0.2,55.9l24.7,24.8l0.2,72.8l-12.1,12l0.3,45l13.9,13.7l0.6,207.5"/>
<path id="bg5" class="st0" d="M194.8-94.8l-0.4,190.1L180.5,109l-0.4,75.6l-10.9,11l-8.6,0.1l-28.5,28.2L131.5,584l29,28.6l8.6,0.1
	l10.9,11l0.4,59.3l9.7,9.7l0.4,204.5"/>
<path id="bg2" class="st0" d="M164.2-94.8c-0.1,0.7,0,167.6,0,167.6l12.3,12v141.7l-17,17.2v181.9l-14.8,15.5v9.7l14.8,15.5v98.3
	l17,17.2v141.7l-12.3,12c0,0-0.1,166.9,0,167.6"/>
<path id="bg1" class="st0" d="M160.6-96V72.3L173,84.8v136.7L157.5,237l0.1,185.3l-9.9,10.3v26.1l9.9,10.4l-0.1,102.2l15.5,15.5
	v136.7L160.5,736v168.3"/>
<path id="bg11" class="st0" d="M156.6-5.6c0.4-235.9,0,60.9,0,67.4l-16.1,16.5v195.5L109,305.4l0.2,12.5l-7.4,7.4l-0.1,22.7
	L87,362.7l-0.2,122l48.8,48.8v181.2l-7.6,7.4l0.3,183.9"/>
<path id="bg12" class="st0" d="M128.3-97.7L128,86.2l7.6,7.4v181.2l-45.8,45.8L90,448.7l12,12l0.1,20.2l5.3,5.6l-0.1,14.8l33,33.1
	V730l16.1,16.5c0,6.5,0.4,303.3,0,67.4"/>
<path id="bg4" class="st0" d="M123-97.2l-0.2,375.6L91.9,309l-0.3,190.1l31.2,30.9l0.2,375.6"/>
<path id="bg23" class="st0" d="M120.4,903.9l-0.1-349L63,497.2l-0.4-20.4l5.2-5.3v-18.9l-1.7-1.6L66,354.3l4.9-4.8V337l-8.4-8.5
	l0.4-20.4l57.3-57.6l0.1-349"/>
<path id="bg24" class="st0" d="M115.3,903.9V554.5l-40.4-40.6v-61.7l-11.6-11.5l-0.1-73.8l11.6-11.5v-63.7l40.4-40.6V-98.4"/>
<path id="bg3" class="st0" d="M107.3,899.3l-0.1-274.9L102,620l0.3-103.4l20.5-20.7l0.2-185.3l-20.2-20.3V187.6l10.9-10.1
	c0,0,0-274.4,0.1-274.9"/>
<path id="bg27" class="st0" d="M103,811.3c-0.4,235.9,0-60.9,0-67.4l14.7-15.1v-245l-10.6-10.2l0.1-20.9l13.2-13.2l-0.1-73.6
	l-13.2-13.2l-0.1-20.9l10.6-10.2v-245l-14.6-15c0-6.5-0.4-303.3,0-67.4"/>
<path id="bg26" class="st0" d="M76.2,810.8c-0.4,235.9,0-60.9,0-67.4l16.1-16.5V521.8l21-21.7v-13.3l-9-8.8l0.1-27.1l12.7-12.7
	l-0.1-70.9l-12.7-12.7l-0.1-27.1l10.2-9.6V306l-22.2-22.3V78.6L76.1,62.1c0-6.5-0.4-303.3,0-67.4"/>
<path id="bg18" class="st0" d="M64.8,902.9l0.4-190.1l13.9-13.7l0.4-75.6l10.9-11l-0.1-93.4l6.7-6.2V292.7l-6.8-6.2l0.1-93.4
	l-10.9-11L79,106.4L65.1,92.7L64.7-97.4"/>
<path id="bg19" class="st0" d="M61.9,902.7l0.6-197.8l13.9-13.7l0.3-54.7L41,600.9V175.6L76.6,140l-0.3-25.7l-13.9-13.7L61.8-97.2"
	/>
<path id="bg13" class="st0" d="M72.2,901.2V808l-12.4-12.5v-91.8l11.8-11.8V585.3l-11.4-11.6l-0.1-91.1l23.4-23.2l-0.1-37.1
	L60,399.2l0.1-167.4l11.4-11.6V113.6l-11.8-11.8V10L72.1-2.5v-93.2"/>
<path id="bg22" class="st0" d="M58.1,902.1l-0.2-349.4L17,511.8l0.3-59.5l21-21.6l-0.1-55.8l-21-21.6L17,293.8l40.8-40.9L58-96.6"/>
<path id="bg14" class="st0" d="M68.6,900c0.1-0.7,0-92.5,0-92.5l-12.3-12v-92.3l13.3-13.5V599V464.6l11.5-11.4L81,430.4L69.5,419
	V206.5v-90.7l-13.3-13.5V10L68.5-2c0,0,0.1-91.8,0-92.5"/>
<path id="bg20" class="st0" d="M53.4,902.2l-0.1-349L7.7,507.3v-49.4l-5.2-5V352.7l5.2-5v-49.4l45.5-45.9l0.1-349"/>
<path id="bg21" class="st0" d="M48.3,902.2V552.8l-36.7-36.9l-0.1-226.1l36.7-36.9V-96.7"/>
<path id="bg16" class="st0" d="M13.7,904.1c0.1-0.5,0.1-277.7,0.1-277.7l10.5-10.8l0.1-31.7l7.5-7.7l-0.1-346.8l-7.5-7.7L24.2,190
	l-10.5-10.8c0,0,0-277.2-0.1-277.7"/>
<path id="bg15" class="st0" d="M9.3,899.1c0.1,49.5,0.9-272.9,0.9-272.9l16.4-16.5l-0.1-23.1l17.2-17.2v-61.5l9.7-10l-0.1-190.3
	l-9.7-10v-61.5L26.4,219l0.1-23.1l-16.4-16.5c0,0-0.8-322.4-0.9-272.9"/>
<path id="bg17" class="st0" d="M4.5,903.9l0.2-375.6l59.5-59v-15.7l-7.9-7.2l-0.1-87.2l11.1-10.4v-9.4L4.6,277.2L4.4-98.4"/>
<path id="bg25" class="st0" d="M1.6,901.9L1.9,718l5-4.4V516.8l22.2-22.2l0.1-20.7L44,459.1l-0.1-112.6l-14.8-14.9L29,310.9
	L6.9,288.7V91.9l-5-4.4L1.6-96.4"/>
<path id="bg9" class="st0" d="M449.7-94l0.2,349.4l48.5,48.6l-0.3,59.5l-28.7,29l-0.1,64.5l28.7,28.8l0.3,18.5l-63.4,63.5L434.7,906
	"/>
<path id="bg7" class="st0" d="M518.1-94.1l0.1,349l40.9,41.1h7.9l12.1,12.4v32l10.2,10.2v30.5l10.2,10v42.8l-10.2,10v13.3l-9.6,10
	v32l-12.7,13h-7.9l-54.7,54.9L504.3,906"/>
<path id="bg8" class="st0" d="M562.5-94.1v349.4l35.7,35.9l27.6-0.2l10.4,10.6l0.3,206.3l-9.1,9.3l-29.3-0.2l-35.7,36v353"/>
<path id="bg10" class="st0" d="M605.4-93.4l0.2,313.7l9.5,9.5v36.1l22.1,22h17.2l14.3,14.1l0.4,206.8l-11.6,11.6H637l-22.1,22v36.1
	l-9.5,9.5l-0.2,318"/>
<path id="bg33" class="st0" d="M483,906l0.6-212.6l13.9-13.7l0.3-44.3l-12.1-12l0.2-71l24.9-24.9l-0.3-57.4l20.1-19.8l-0.2-87.5
	L510.9,343l-0.2-63.3L486,254.9l-0.2-72.8l12.1-12l-0.3-54.7l-13.9-13.7L483-94"/>
<path id="bg32" class="st0" d="M767.6,906l0.4-216.5l8.6-8.4l0.4-58.7l10.9-11l8.6-0.1l27.9-27.6l0.1-361.7l-28-27.6l-8.6-0.1
	l-10.9-11l-0.4-75.6L762.8,94l-0.4-188"/>
<path id="bg29" class="st0" d="M680.7,906c0.1-0.7,0-171.8,0-171.8l-12.3-12V580.5l17-17.2v-98.7l14.8-15.5l0.1-82.5L685.4,351
	V242.4l-17-17.2V83.5l12.3-12c0,0,0.1-164.8,0-165.5"/>
<path id="bg28" class="st0" d="M736.4,906V734.7L724,722.2V585.5l15.5-15.5l-0.1-102.1l10.4-10.8v-25.4L739.5,421l0.1-185.3
	l-15.5-15.5V83.5L736.5,71V-94"/>
<path id="bg38" class="st0" d="M915,906l0.3-185.2l-7.6-7.4V532.2l46.2-46.2l-0.1-127.1l-12.6-12.6l-0.1-20.2l-5.3-5.6l0.1-14.8
	l-33-33.1V77l-16.1-16.5c0-6.5,0-154.5,0-154.5"/>
<path id="bg39" class="st0" d="M942.5,906V745.2l16.1-16.5V533.2l31.5-31.6l-0.2-12.5l7.4-7.4l0.1-22.7l15.4-15.4l0.3-120.5
	l-49.6-49.6V92.3l7.6-7.4L970.9-94"/>
<path id="bg31" class="st0" d="M1017.6,906l0.2-377.4l31-30.7l-0.4-190.6l-30.5-30.2L1017.7-94"/>
<path id="bg50" class="st0" d="M1081.2-94l0.1,346.2l57.3,57.6l0.4,20.4l-9,9v11.4l5.5,5.5l0.1,96.5l-1.9,2.1v18.2l5.4,5.4
	l-0.4,20.4l-57.3,57.6l-0.1,349.7"/>
<path id="bg51" class="st0" d="M1035.6-94v346.6l40.4,40.6v61.7l11.6,11.5l0.1,31.8v42l-11.6,11.5v63.7l-40.4,40.6v350"/>
<path id="bg30" class="st0" d="M1187.6,906l0.1-281.7l5.7-4.9V516.7l-22-22.1l0.1-181.6l22.4-22.6l0.3-103.4l-11.6-10.8
	c0,0,0-269.7-0.1-270.2"/>
<path id="bg54" class="st0" d="M874.1-94c0,0,0,150.6,0,157.1l-14.7,15.1v245l10.6,10.2l-0.1,20.9l-13.2,13.2l0.1,73.6l13.2,13.2
	l0.1,20.9l-10.6,10.2v245l14.7,15.1V906"/>
<path id="bg53" class="st0" d="M1258.2-94c0,0,0,151.1,0,157.6l-16.1,16.5v205.1l-21,21.7v13.3l9,8.8l-0.1,27.1l-12.7,12.7l0.1,70.9
	l12.7,12.7l0.1,27.1l-10.2,9.6V501l22.2,22.3v205.1l16.1,16.5V906"/>
<path id="bg40" class="st0" d="M1384.7-94.2V-1l12.4,12.5v91.8l-11.8,11.8v106.6l11.4,11.6l0.1,95.7l-23.4,23.2l0.1,110l23.4,23.2
	l-0.1,89.9l-11.4,11.6v106.6l11.8,11.8v91.8l-12.4,12.5V906"/>
<path id="bg41" class="st0" d="M1331.6-93c-0.1,0.7,0,92.5,0,92.5l12.3,12v92.3l-13.3,13.5V208v138l-11.5,11.4l0.1,99.8l11.5,11.4
	v131.9v90.7l13.3,13.5V797l-12.3,12c0,0-0.1,96.3,0,97"/>
<path id="bg45" class="st0" d="M1302.4-94L1302,94.3l-13.9,13.7l-0.4,75.6l-10.9,11l0.1,93.4l-7.6,7.1l-0.1,218.2l7.8,7.3l-0.1,93.4
	l10.9,11l0.4,75.6l13.9,13.7l0.4,191.7"/>
<path id="bg46" class="st0" d="M1453.1-94l-0.6,196.2l-13.9,13.7l-0.3,54.7l35.6,35.5l0.1,425.4l-35.6,35.5l0.3,25.7l13.9,13.7
	l0.6,199.6"/>
<path id="bg49" class="st0" d="M1609.8-94l0.2,348.4l40.8,40.9l-0.3,59.5l-21,21.6l0.1,55.8l21,21.6l0.3,59.5l-40.8,40.9l-0.2,351.8
	"/>
<path id="bg47" class="st0" d="M1844.1-94l0.1,347.9l45.5,45.9v49.4l5.2,5l0.1,100.2l-5.2,5v49.4l-45.5,45.9l-0.1,351.3"/>
<path id="bg48" class="st0" d="M1794.3-94v348.3l36.7,36.9l0.1,226.1l-36.7,36.9V906"/>
<path id="bg43" class="st0" d="M1578.2-94c-0.1,0.5-0.1,274.7-0.1,274.7l-10.5,10.8l-0.1,31.7l-7.5,7.7l0.1,346.8l7.5,7.7l0.1,31.7
	l10.5,10.8c0,0,0,277.6,0.1,278.1"/>
<path id="bg42" class="st0" d="M1541.1-94l-0.9,274.9l-16.4,16.5l0.1,23.1l-17.2,17.2v61.5l-9.7,10l0.1,190.3l9.7,10V571l17.2,17.2
	l-0.1,23.1l16.4,16.5l0.9,278.2"/>
<path id="bg44" class="st0" d="M1774.9-94l-0.2,372.8l-62.6,62.2v9.4l11.1,10.4l0.1,87.2l-8.7,8.1l-0.1,13.5l60.4,60.4l0.2,376"/>
<path id="bg52" class="st0" d="M1710.5-94l-0.3,183l-5,4.4v196.8l-22.2,22.2l-0.1,20.7l-14.8,14.9l0.1,112.6l14.8,14.9l0.1,20.7
	l22.2,22.2v196.8l5,4.4l0.3,186.4"/>
<path class="st0" d="M372-93"/>
<path class="st0" d="M372,407"/>
</svg>
