		 				<svg version="1.1" id="logobackgroundcontainer"  xmlns="http://www.w3.org/2000/svg"  x="0px" y="0px" width="100%" height="100%"  viewbox="0 20 413 880" xml:space="preserve"  preserveAspectRatio="xMaxYMin slice">
          					
	   						<path id="bg36" class="background_line left inner 1 white"  d="M229.882,917.337l-0.199-349.4l-64.826-64.925l0.301-17.164l28.7-29.013l0.061-65.811l-28.701-28.812l-0.301-59.5l48.501-48.6l0.199-349.4"/>
       						<path id="bg34" class="background_line left inner 2 white"  d="M222.387,914.64l-0.101-349l-54.428-54.628h-7.899l-12.094-12.393v-32l-10.153-10.247V443.74l-11.672-11.512l0.023-43.407l11.638-11.464v-27.647l9.584-9.969v-32l12.734-13.033h7.898l40.901-41.1l0.101-349"/>
       						<path id="bg35" class="background_line left inner 3 white"  d="M203.757,901.112V551.713l-35.7-35.9l-27.572,0.169l-11.8-12.056l0.169-203.929l10.012-10.255l29.252,0.168l35.7-35.9V-95.388"/>
       						<path id="bg37" class="background_line left inner 4 white"  d="M199.158,900.412l-0.199-313.7l-9.5-9.5v-36.101l-22.101-22h-17.2l-15.329-15.131l0.189-205.658l11.95-11.709h20.451l22.102-22v-36.102l9.5-9.5l0.199-313.7"/>
       						<path id="bg6" class="background_line left inner 5 white"   d="M197.666-94.587l-0.6,197.8l-13.9,13.7l-0.299,54.7l12.1,12l-0.185,70.953l-24.852,24.856l0.26,140.605l-18.794,18.539l-0.118,13.901l18.552,18.806l0.156,55.898l24.737,24.768l0.184,72.774l-12.1,12l0.299,45.027l13.9,13.7l0.6,207.473"/>
       						<path id="bg5" class="background_line left inner 6 white"  d="M194.767-94.787l-0.399,190.1l-13.9,13.7l-0.4,75.6l-10.9,11l-8.6,0.1l-28.518,28.161l-0.53,360.12l28.985,28.62l8.6,0.1l10.9,11l0.4,59.318l9.736,9.712l0.395,204.535"/>
       						<path id="bg2" class="background_line left inner 7 white"  d="M164.166-94.787c-0.1,0.7,0,167.6,0,167.6l12.301,12v141.701l-17,17.199v181.898l-14.842,15.506l-0.035,9.746l14.818,15.49v98.261l17,17.199v141.701l-12.301,12c0,0-0.1,166.9,0,167.6"/>
       						<path id="bg1" class="background_line left inner 8 white"  d="M160.567-95.987v168.3l12.4,12.5v136.701l-15.5,15.5l0.1,185.298l-9.888,10.295l-0.031,26.138l9.86,10.376l-0.1,102.192l15.5,15.5v136.701l-12.4,12.5v168.3"/>
       						<path id="bg11" class="background_line left inner 9 white" d="M156.567-5.587c0.4-235.9,0,60.9,0,67.4l-16.1,16.5v195.499l-31.5,31.602l0.233,12.481l-7.437,7.401l-0.101,22.722l-14.695,14.694l-0.214,122.045l48.755,48.757v181.2l-7.6,7.4l0.299,183.9"/>
       						<path id="bg12" class="background_line left middle 10 white"  d="M128.267-97.687l-0.3,183.9l7.6,7.4v181.199l-45.813,45.814l0.217,128.05l12.046,12.047l0.101,20.183l5.349,5.648l-0.1,14.817l33.041,33.143v195.499l16.1,16.5c0,6.5,0.4,303.3,0,67.4"/>
       						<path id="bg4" class="background_line left middle 11 white" d="M122.967-97.187l-0.2,375.601l-30.878,30.578l-0.333,190.069l31.152,30.851l0.201,375.601"/>
       						<path id="bg23" class="background_line left middle 12 white"   d="M120.391,903.863l-0.101-349l-57.281-57.631l-0.356-20.389l5.237-5.253l0.005-18.921l-1.722-1.561l-0.063-96.709l4.934-4.773l-0.026-12.476l-8.428-8.488l0.356-20.389l57.281-57.631l0.101-349"/>
       						<path id="bg24" class="background_line left middle 13 white"  d="M115.29,903.863V554.464l-40.388-40.588v-61.71l-11.587-11.5l-0.063-73.808l11.587-11.5v-63.729l40.388-40.588V-98.358"/>
       						<path id="bg3" class="background_line left middle 14 white"  d="M107.343,899.348l-0.101-274.901l-5.215-4.414l0.263-103.367l20.493-20.72l0.184-185.254l-20.236-20.334l-0.012-102.698l10.947-10.146c0,0,0-274.401,0.101-274.901"/>
       						<path id="bg27" class="background_line left middle 15 white"  d="M103.04,811.342c-0.399,235.9,0-60.9,0-67.4l14.667-15.065V483.838l-10.596-10.164l0.08-20.905l13.199-13.199l-0.063-73.635l-13.199-13.199l-0.08-20.905l10.596-10.164V76.628l-14.667-15.065c0-6.5-0.399-303.3,0-67.4"/>
       						<path id="bg26" class="background_line left middle 16 white" d="M76.191,810.813c-0.4,235.9,0-60.9,0-67.4l16.1-16.5V521.809l20.96-21.676v-13.337l-8.953-8.811l0.105-27.105l12.675-12.675l-0.063-70.905l-12.675-12.675l-0.105-27.105l10.155-9.625v-11.936l-22.162-22.263V78.592l-16.1-16.5c0-6.5-0.4-303.3,0-67.4"/>
       						<path id="bg18" class="background_line left middle 17 white"  d="M64.753,902.863l0.4-190.1l13.899-13.7l0.399-75.6l10.9-11l-0.076-93.375l6.722-6.219l-0.032-220.202l-6.753-6.25l0.076-93.375l-10.9-11l-0.399-75.6l-13.899-13.7l-0.4-190.1"/>
       						<path id="bg19" class="background_line left middle 18 white"  d="M61.855,902.663l0.6-197.8l13.9-13.7l0.299-54.7L41.031,600.94l-0.063-425.387l35.623-35.523l-0.299-25.688l-13.9-13.7l-0.6-197.8"/>
       						<path id="bg13" class="background_line left outer 19 white"  d="M72.191,901.213v-93.165l-12.4-12.5v-91.836l11.787-11.787l-0.035-106.587l-11.385-11.623L60.1,482.629l23.426-23.164l-0.063-37.107l-23.426-23.164l0.057-167.404l11.385-11.623l0.035-106.587l-11.787-11.787V9.957l12.4-12.5v-93.165"/>
       						<path id="bg22" class="background_line left outer 20 white" d="M58.054,902.063l-0.199-349.4l-40.811-40.909l0.301-59.5l21.01-21.591l-0.063-55.821l-21.01-21.591l-0.301-59.5l40.811-40.909l0.199-349.4"/>
       						<path id="bg14" class="background_line left outer 21 white"  d="M68.591,900.013c0.1-0.7,0-92.465,0-92.465l-12.301-12v-92.32l13.287-13.486v-90.736V464.557l11.488-11.373l-0.063-22.811l-11.488-11.373v-212.5v-90.736l-13.287-13.486V9.957l12.301-12c0,0,0.1-91.765,0-92.465"/>
       						<path id="bg20" class="background_line left outer 22 white"  d="M53.355,902.163l-0.102-349l-45.54-45.901l0.042-49.398l-5.157-5.015L2.535,352.656l5.157-5.015L7.65,298.243l45.54-45.901l0.102-349"/>
       						<path id="bg21" class="background_line left outer 23 white"  d="M48.253,902.163v-349.4l-36.749-36.949l-0.063-226.123l36.749-36.949v-349.4"/>
       						<path id="bg16" class="background_line left outer 24 white"  d="M13.691,904.063c0.102-0.5,0.102-277.725,0.102-277.725l10.518-10.769l0.146-31.731l7.46-7.674l-0.063-346.823l-7.46-7.674l-0.146-31.731L13.73,179.167c0,0,0-277.225-0.102-277.725"/>
       						<path id="bg15" class="background_line left outer 25 white"  d="M9.291,899.063c0.1,49.5,0.898-272.901,0.898-272.901l16.364-16.463l-0.102-23.146l17.197-17.197l0.016-61.517l9.732-9.957l-0.063-190.259l-9.732-9.957l-0.016-61.517l-17.197-17.197l0.102-23.146l-16.364-16.463c0,0-0.798-322.401-0.898-272.901"/>
       						<path id="bg17" class="background_line left outer 26 white"  d="M4.491,903.863l0.2-375.6l59.474-59.023l-0.005-15.681l-7.898-7.221l-0.063-87.171l11.054-10.377v-9.373L4.628,277.242l-0.2-375.6"/>
       						<path id="bg25" class="background_line left outer 27 white"  d="M1.625,901.928l0.3-183.9l4.99-4.44v-196.75L29.1,494.654l0.1-20.7l14.792-14.892l-0.063-112.619l-14.792-14.892l-0.1-20.7L6.852,288.667V91.917l-4.99-4.44l-0.3-183.9"/>
        		
        		
       						<path id="bg9" class="background_line right inner 1 white"  d="M201.467-93.987l0.199,349.4l48.501,48.6l-0.301,59.5l-28.7,29.013l-0.061,64.478l28.701,28.812l0.301,18.497l-63.432,63.531l-0.199,349.4"/>
       						<path id="bg7" class="background_line right inner 2 white"  d="M206.166-94.087l0.101,349l40.9,41.1h7.899l12.094,12.393v32l10.153,10.247v30.485l10.176,10.015l0.011,42.834l-10.175,10.001v13.325l-9.584,9.969v32l-12.734,13.033h-7.898l-54.689,54.888l-0.101,349"/>
       						<path id="bg8" class="background_line right inner 3 white"  d="M211.267-94.087v349.399l35.7,35.9l27.572-0.169l10.365,10.621l0.33,206.3l-9.075,9.319l-29.252-0.168l-35.7,35.9v349.399"/>
       						<path id="bg10" class="background_line right inner 4 white"  d="M215.867-93.387l0.199,313.7l9.5,9.5v36.101l22.101,22h17.2l14.322,14.123l0.431,206.78l-11.562,11.594h-20.451l-22.102,22v36.102l-9.5,9.5l-0.199,313.7"/>
       						<path id="bg33" class="background_line right inner 5 white"  d="M217.359,901.612l0.6-208.214l13.9-13.7l0.299-44.286l-12.1-12l0.185-70.953l24.852-24.856l-0.26-57.405l20.052-19.796l-0.165-11.763l-19.527-19.781l-0.156-139.004l-24.737-24.768l-0.184-72.774l12.1-12l-0.299-54.7l-13.9-13.7l-0.6-197.8"/>
       						<path id="bg32" class="background_line right inner 6 white"  d="M225.55,896.519l0.399-207.02l8.607-8.407l0.4-58.68l10.9-11l8.6-0.1l27.925-27.568l0.136-361.7l-27.999-27.633l-8.6-0.1l-10.9-11l-0.4-75.6l-13.9-13.7l-0.399-190.1"/>
       						<path id="bg29" class="background_line right inner 7 white"  d="M250.859,901.812c0.1-0.7,0-167.6,0-167.6l-12.301-12V580.511l17-17.199v-98.698l14.842-15.506l0.129-9.746l-14.912-15.584V242.412l-17-17.199V83.512l12.301-12c0,0,0.1-166.9,0-167.6"/>
       						<path id="bg28" class="background_line right inner 8 white"  d="M254.458,903.012v-168.3l-12.4-12.5V585.511l15.5-15.5l-0.1-102.098l10.365-10.771l-0.045-25.356l-10.26-10.776l0.1-185.298l-15.5-15.5V83.512l12.4-12.5v-168.3"/>
       						<path id="bg38" class="background_line right inner 9 white"  d="M286.758,904.712l0.3-183.9l-7.6-7.4V532.213l46.22-46.221l-0.092-127.11l-12.579-12.58l-0.101-20.183l-5.349-5.648l0.1-14.817l-33.041-33.143V77.012l-16.1-16.5c0-6.5-0.4-303.3,0-67.4"/>
       						<path id="bg39" class="background_line right middle 10 white"  d="M258.457,812.612c-0.4,235.9,0-60.9,0-67.4l16.1-16.5V533.213l31.5-31.602l-0.233-12.481l7.437-7.401l0.101-22.722l15.39-15.389l0.338-120.53l-49.575-49.577v-181.2l7.6-7.4l-0.299-183.9"/>
       						<path id="bg31" class="background_line right middle 11 white"  d="M292.057,904.212l0.2-375.601l30.968-30.668l-0.375-190.599l-30.533-30.232l-0.201-375.601"/>
       						<path id="bg50" class="background_line right middle 12 white"  d="M294.634-96.838l0.101,349l57.281,57.631l0.356,20.389l-9.019,9.035l0.047,11.411l5.452,5.523l0.063,96.5l-1.909,2.125l0.026,18.168l5.403,5.419l-0.356,20.389l-57.281,57.631l-0.101,349"/>
       						<path id="bg51" class="background_line right middle 13 white"  d="M299.735-96.838v349.399l40.388,40.588v61.71l11.587,11.5l0.063,31.792v42.016l-11.587,11.5v63.729l-40.388,40.588v349.399"/>
       						<path id="bg30" class="background_line right middle 14 white"  d="M306.516,899.154l0.101-274.901l5.689-4.888l-0.012-102.698l-22.04-22.137l0.091-181.555l22.389-22.616l0.263-103.368l-11.58-10.779c0,0,0-274.401-0.101-274.901"/>
       						<path id="bg54" class="background_line right middle 15 white" d="M311.985-4.317c0.399-235.9,0,60.9,0,67.4l-14.667,15.065v245.039l10.596,10.164l-0.08,20.905l-13.199,13.199l0.063,73.635l13.199,13.199l0.08,20.905l-10.596,10.164v245.039l14.667,15.065c0,6.5,0.399,303.3,0,67.4"/>
       						<path id="bg53" class="background_line right middle 16 white"  d="M338.834-3.788c0.4-235.9,0,60.9,0,67.4l-16.1,16.5v205.104l-20.96,21.676v13.337l8.953,8.811l-0.105,27.105l-12.675,12.675l0.063,70.905l12.675,12.675l0.105,27.105l-10.155,9.625v11.936l22.162,22.263v205.104l16.1,16.5c0,6.5,0.4,303.3,0,67.4"/>
       						<path id="bg40" class="background_line right middle 17 white"  d="M342.834-94.188v93.165l12.4,12.5v91.836L343.447,115.1l0.035,106.587l11.385,11.623l0.057,169.137l-23.426,23.164l0.063,36.595l23.426,23.164l-0.057,89.865l-11.385,11.623l-0.035,106.587l11.787,11.787v91.836l-12.4,12.5v93.165"/>
       						<path id="bg41" class="background_line right middle 18 white"  d="M346.434-92.988c-0.1,0.7,0,92.465,0,92.465l12.301,12v92.32l-13.287,13.486v90.736v212.5l-11.488,11.373l0.063,25.332l11.488,11.373v131.928v90.736l13.287,13.486v92.32l-12.301,12c0,0-0.1,91.765,0,92.465"/>
       						<path id="bg45" class="background_line right outer 19 white"  d="M350.272-95.838l-0.4,190.1l-13.899,13.7l-0.399,75.6l-10.9,11l0.076,93.375l-7.628,7.125l-0.115,218.243l7.805,7.302l-0.076,93.375l10.9,11l0.399,75.6l13.899,13.7l0.4,190.1"/>
       						<path id="bg46" class="background_line right outer 20 white"   d="M353.17-95.638l-0.6,197.8l-13.9,13.7l-0.299,54.7l35.623,35.523l0.063,425.387l-35.623,35.523l0.299,25.688l13.9,13.7l0.6,197.8"/>
       						<path id="bg49" class="background_line right outer 21 white"  d="M356.971-95.038l0.199,349.4l40.811,40.909l-0.301,59.5l-21.01,21.591l0.063,55.821l21.01,21.591l0.301,59.5l-40.811,40.909l-0.199,349.4"/>
       						<path id="bg47" class="background_line right outer 22 white"  d="M361.67-95.138l0.102,349l45.54,45.901l-0.042,49.398l5.157,5.015l0.063,100.193l-5.157,5.015l0.042,49.398l-45.54,45.901l-0.102,349"/>
       						<path id="bg48" class="background_line right outer 23 white"  d="M366.772-95.138v349.4l36.749,36.949l0.063,226.123l-36.749,36.949v349.4"/>
  	   						<path id="bg43" class="background_line right outer 24 white"  d="M401.334-97.038c-0.102,0.5-0.102,277.725-0.102,277.725l-10.518,10.769l-0.146,31.731l-7.46,7.674l0.063,346.823l7.46,7.674l0.146,31.731l10.518,10.769c0,0,0,277.225,0.102,277.725"/>
       						<path id="bg42" class="background_line right outer 25 white"  d="M405.734-92.038c-0.1-49.5-0.898,272.901-0.898,272.901l-16.364,16.463l0.102,23.146l-17.197,17.197l-0.016,61.517l-9.732,9.957l0.063,190.259l9.732,9.957l0.016,61.517l17.197,17.197l-0.102,23.146l16.364,16.463c0,0,0.798,322.401,0.898,272.901"/>
       						<path id="bg44" class="background_line right outer 26 white"  d="M410.534-96.838l-0.2,375.6l-62.625,62.175v9.373l11.054,10.377l0.063,87.171l-8.74,8.063l-0.114,13.479l60.426,60.382l0.2,375.6"/>
       						<path id="bg52" class="background_line right outer 27 white"  d="M413.4-94.903l-0.3,183.9l-4.99,4.44v196.75l-22.185,22.184l-0.1,20.7l-14.792,14.892l0.063,112.619l14.792,14.892l0.1,20.7l22.185,22.184v196.75l4.99,4.44l0.3,183.9"/>
    						
        				</svg>